<svg version="1.1" id="Layer_1" xmlns="http://www.w3.org/2000/svg" xmlns:xlink="http://www.w3.org/1999/xlink" x="0px" y="0px"
	 width="100%" viewBox="0 0 500 500" enable-background="new 0 0 500 500" xml:space="preserve">
<path fill="#000000" opacity="1.000000" stroke="none" 
	d="
M345.000000,501.000000 
	C231.333359,501.000000 118.166695,500.980103 5.000178,501.095276 
	C1.576396,501.098755 0.903033,500.423889 0.905298,497.000031 
	C1.013776,333.000122 1.013758,169.000153 0.905339,5.000263 
	C0.903076,1.576998 1.575745,0.903019 4.999860,0.905284 
	C168.999741,1.013775 332.999725,1.013760 496.999634,0.905354 
	C500.422638,0.903091 501.096985,1.575407 501.094727,4.999741 
	C500.986206,168.999634 500.986237,332.999603 501.094604,496.999512 
	C501.096893,500.422272 500.426331,501.107178 497.000153,501.097565 
	C446.500397,500.955902 396.000153,501.000000 345.000000,501.000000 
z"/>
<path fill="#4F7D14" opacity="1.000000" stroke="none" 
	d="
M259.814270,118.761536 
	C260.178101,118.961571 260.629120,119.016052 260.848785,119.073776 
	C263.130219,119.920479 265.287872,119.266151 267.732727,119.743690 
	C278.472595,120.288338 287.759277,124.435646 296.708221,129.035889 
	C313.248383,137.538437 326.704132,149.612946 336.344879,165.700287 
	C345.645050,181.219406 350.734009,197.833038 351.117767,216.095871 
	C351.595886,238.847275 345.438263,259.309601 332.034943,277.583344 
	C316.576996,298.658264 296.071930,312.028381 270.324829,316.968842 
	C241.854156,322.431885 215.511047,316.931274 192.110641,299.873566 
	C169.865570,283.658051 156.073608,261.827393 151.978500,234.302887 
	C148.167023,208.684631 152.906967,184.840973 167.071838,163.033752 
	C168.776840,160.408829 170.902664,158.057220 173.012817,155.284882 
	C173.312347,154.807480 173.432465,154.624146 173.778564,154.202011 
	C174.004547,153.963196 174.020355,154.018661 173.991837,154.014343 
	C174.209854,153.789062 174.447678,153.559067 174.840668,153.133728 
	C175.004562,152.947372 175.009995,153.011673 174.977936,153.007996 
	C175.204056,152.792847 175.447159,152.565247 175.839417,152.133209 
	C176.003677,151.944885 176.014786,152.009995 175.981781,152.010788 
	C176.217651,151.781433 176.464981,151.530243 176.831116,151.032150 
	C177.436157,150.284103 177.897507,149.758682 178.592316,149.107208 
	C179.122467,148.788101 179.402115,148.572876 179.839325,148.136047 
	C180.013916,147.936569 180.007080,148.014420 179.968155,148.011017 
	C180.191315,147.791901 180.441269,147.563004 180.841446,147.124588 
	C181.005737,146.930328 181.009476,147.004059 180.972610,147.005951 
	C181.195190,146.790894 181.442108,146.560455 181.843384,146.126053 
	C182.008636,145.933838 182.009155,146.009674 181.971222,146.009979 
	C182.192520,145.792465 182.440887,145.562973 182.842346,145.127655 
	C183.008072,144.935440 183.008530,145.008499 182.971985,145.008743 
	C183.193832,144.791809 183.440735,144.562286 183.841553,144.128952 
	C184.006958,143.937515 184.007782,144.007721 183.972672,144.007706 
	C184.195709,143.790909 184.441574,143.560928 184.842178,143.128510 
	C185.007446,142.937408 185.013275,143.007996 184.977997,143.010925 
	C185.206711,142.789871 185.450470,142.545654 185.833801,142.077087 
	C200.249802,129.610443 216.748413,122.209877 235.655441,119.168869 
	C237.484543,119.783585 238.966263,119.423828 240.704849,119.293274 
	C241.467682,118.872055 241.951202,118.599609 242.709137,118.279282 
	C248.441559,119.885269 253.974808,117.785522 259.814270,118.761536 
z"/>
<path fill="#4F7F11" opacity="1.000000" stroke="none" 
	d="
M180.295258,353.162476 
	C180.179733,352.952362 180.047195,352.568726 180.014526,352.368408 
	C179.806854,351.906952 179.623505,351.651825 179.313385,351.198914 
	C179.194977,350.995148 179.070618,350.574646 179.037079,350.358002 
	C178.622620,349.673279 178.503586,349.111908 178.289948,348.281342 
	C177.141159,345.308868 176.361649,342.584015 178.053802,339.427887 
	C178.469421,338.554688 178.482407,337.959595 178.822220,337.179260 
	C178.985474,336.942017 179.015930,337.002289 178.984497,337.014648 
	C179.456909,336.576019 179.486984,335.922241 179.848206,335.074493 
	C184.727844,327.092712 192.572540,325.114197 201.761871,329.664429 
	C202.230011,330.189545 202.461121,330.439026 202.888245,330.851501 
	C203.084854,331.013977 202.986038,331.013885 202.986053,330.964478 
	C203.203293,331.185333 203.436661,331.440857 203.886658,331.846924 
	C204.087112,332.012207 203.986923,332.013397 203.986298,331.963318 
	C204.201675,332.182953 204.433807,332.437958 204.879486,332.845825 
	C205.076889,333.013397 205.004745,332.988617 205.017151,332.952545 
	C205.975937,334.410675 206.326828,336.232178 207.831116,337.776428 
	C208.081894,337.995300 208.016373,337.992004 208.023407,337.959961 
	C209.007004,341.332947 208.310928,344.806458 208.246201,348.671722 
	C207.572006,353.168457 205.111755,355.776184 201.419373,357.844940 
	C200.361557,358.715851 199.357849,358.390625 198.221466,358.839111 
	C197.959671,359.067261 197.997101,358.992096 198.034714,359.010742 
	C195.310318,359.972443 192.467667,359.328125 189.249634,359.229553 
	C188.835007,359.002563 188.424515,358.928802 188.228241,358.858398 
	C186.657471,357.724548 185.080521,357.046539 183.225861,356.211365 
	C182.964722,356.022675 182.998734,355.986603 183.001205,356.011292 
	C182.779434,355.780609 182.538727,355.542023 182.081070,355.162598 
	C181.590607,354.927856 181.356384,354.767822 181.090576,354.325562 
	C180.795288,353.883575 180.598694,353.631470 180.295258,353.162476 
z"/>
<path fill="#4E7E11" opacity="1.000000" stroke="none" 
	d="
M226.151688,356.268250 
	C223.027161,354.606842 222.675751,350.679169 218.988525,349.251678 
	C218.988525,351.121033 218.929642,352.717987 219.001617,354.309052 
	C219.125687,357.051819 218.900223,359.033997 215.166611,359.093048 
	C211.233780,359.155212 210.952881,357.148346 210.997620,354.141754 
	C211.108826,346.667358 211.130203,339.189087 211.013702,331.715118 
	C210.970779,328.960754 211.889313,327.795471 214.727280,327.958740 
	C217.708313,328.130280 220.708206,328.037354 223.698105,327.975647 
	C227.244827,327.902466 230.273010,328.770081 232.015884,332.197296 
	C233.952438,336.005341 234.452042,340.651764 231.576828,343.293732 
	C226.996506,347.502563 229.861557,349.531372 232.603333,352.230621 
	C233.170425,352.788879 233.516251,353.571899 234.027527,354.591095 
	C234.565399,355.965424 235.278549,356.959351 234.346466,358.496521 
	C233.273178,358.850006 232.498932,358.889771 231.338593,358.887207 
	C229.227127,358.456116 227.714035,357.661682 226.151688,356.268250 
z"/>
<path fill="#4F7D14" opacity="1.000000" stroke="none" 
	d="
M256.786133,352.287964 
	C260.246643,349.592529 261.695648,350.977631 263.180023,354.222595 
	C264.975677,358.147919 262.243744,358.322418 259.916229,359.092102 
	C252.546738,361.529114 245.008041,359.421844 240.222244,353.591949 
	C236.238724,348.739380 235.364563,340.928589 238.937286,335.441742 
	C244.213959,327.338043 253.569534,325.102814 262.071106,328.724396 
	C264.328247,329.685944 264.129852,331.267303 263.306030,333.244507 
	C262.321259,335.607849 261.421082,336.958282 258.310303,336.060486 
	C251.370453,334.057556 246.734024,336.334808 245.499802,342.016357 
	C244.524094,346.507935 247.301804,349.364532 250.732391,352.066284 
	C252.850143,352.834503 254.676193,352.402893 256.786133,352.287964 
z"/>
<path fill="#4F8011" opacity="1.000000" stroke="none" 
	d="
M173.148315,356.942139 
	C169.849182,359.341187 166.283356,359.062286 162.304123,358.881104 
	C154.558884,358.058075 154.506699,358.058014 154.516663,350.333008 
	C154.524521,344.232056 154.404800,338.135406 154.904724,332.029022 
	C155.139252,329.164490 156.160660,328.306488 158.843399,328.463989 
	C161.973724,328.647736 165.120850,328.439484 168.662323,328.771179 
	C169.064758,328.990570 168.999069,329.004028 168.995956,328.970642 
	C173.089462,332.414520 174.225677,336.482727 171.274292,341.692810 
	C174.759995,344.434204 176.924011,347.541687 175.910095,352.581360 
	C175.508209,353.474304 175.520004,354.068481 175.168350,354.827576 
	C175.006943,355.060120 174.989349,354.994507 175.022766,354.988403 
	C174.803467,355.206696 174.558350,355.439087 174.153427,355.869904 
	C173.984818,356.059082 173.981094,355.983887 174.018692,355.981995 
	C173.789261,356.212524 173.540527,356.462952 173.148315,356.942139 
z"/>
<path fill="#4F8111" opacity="1.000000" stroke="none" 
	d="
M266.981873,328.399200 
	C272.268768,328.127716 277.160187,328.090759 282.512207,328.112610 
	C285.707733,333.921570 285.387390,334.483337 279.365845,334.500305 
	C278.234741,334.503479 277.103424,334.484253 275.564850,334.656036 
	C274.823761,335.011292 274.490448,335.237244 274.002930,335.724976 
	C272.529236,339.525879 274.244446,340.815216 277.524414,340.949066 
	C278.667725,340.995728 279.823517,340.923950 280.952759,341.041931 
	C283.107452,341.267090 283.459137,342.919098 283.471344,344.667480 
	C283.485291,346.662750 281.982544,346.485046 280.658569,346.496857 
	C279.334015,346.508667 278.008026,346.536011 276.684937,346.491425 
	C274.902161,346.431335 273.433899,346.460907 273.446320,348.983337 
	C273.457611,351.268921 273.786469,352.859619 276.532196,352.952332 
	C277.485138,352.984528 278.544189,353.160706 279.402222,353.023651 
	C283.625092,352.349121 285.151123,354.072845 284.177551,358.480194 
	C278.600769,358.860504 273.283386,358.894409 267.504364,358.870361 
	C265.913086,348.767639 266.693329,338.693970 266.981873,328.399200 
z"/>
<path fill="#4F8012" opacity="1.000000" stroke="none" 
	d="
M344.519775,328.310455 
	C345.402985,328.126129 345.857483,328.096313 346.650208,328.121246 
	C348.964111,333.745422 348.478241,334.385773 342.714966,334.546600 
	C341.021881,334.593842 338.921661,333.575012 337.681580,335.528076 
	C336.294952,337.711914 337.963470,340.245087 340.676483,340.531403 
	C342.713989,340.746521 345.162628,339.475098 346.704254,341.645050 
	C348.090698,343.596588 346.520874,346.281006 344.000488,346.479156 
	C342.680511,346.582886 341.346802,346.497925 339.576630,346.504028 
	C335.946838,347.262634 337.645721,349.775696 337.721619,351.335358 
	C337.806000,353.068756 339.778717,352.420044 340.991272,352.478577 
	C343.122559,352.581421 345.261169,352.441010 347.756653,352.782806 
	C349.629791,358.376740 349.315521,358.913177 344.310394,358.974213 
	C340.193909,359.024414 336.076019,358.958740 331.497833,358.873291 
	C329.907623,349.003876 330.630768,339.182281 330.989075,329.031860 
	C335.564392,328.237854 339.833313,328.660065 344.519775,328.310455 
z"/>
<path fill="#4F8111" opacity="1.000000" stroke="none" 
	d="
M309.794861,328.598236 
	C311.741364,328.147705 313.442505,328.102081 315.565735,328.115295 
	C317.137665,335.469421 316.153168,342.818237 316.701904,350.562805 
	C316.865387,350.992859 316.970459,351.366730 316.973816,351.560852 
	C319.956970,353.454132 323.205963,352.008636 326.662415,352.770935 
	C327.040161,352.989929 326.991333,353.008148 326.999146,352.983307 
	C327.697968,353.670074 327.423126,354.594177 327.664551,355.735229 
	C328.305359,358.736969 326.579376,358.986938 324.599945,358.977753 
	C320.683868,358.959564 316.767700,358.949768 312.383179,358.874573 
	C309.409912,358.494720 309.462738,356.711273 309.480072,354.794220 
	C309.557892,346.197601 309.435486,337.600037 309.794861,328.598236 
z"/>
<path fill="#4F8012" opacity="1.000000" stroke="none" 
	d="
M288.771027,328.596802 
	C290.110657,328.128021 291.224335,328.087860 292.753693,328.100952 
	C295.795593,329.703705 295.398987,332.375214 295.463409,334.761017 
	C295.588348,339.386902 295.680359,344.028046 295.436127,348.644348 
	C295.275146,351.686737 296.189056,352.895660 299.303619,352.545197 
	C301.259796,352.325104 303.266357,352.448242 305.643402,352.769714 
	C306.037689,352.987244 305.993896,353.005341 306.003845,352.983826 
	C306.720490,354.809570 306.887512,356.637146 305.457764,358.625824 
	C300.102142,358.871277 295.103333,358.910339 289.653442,358.889282 
	C287.617310,355.049774 288.678314,351.102539 288.557831,347.243439 
	C288.368469,341.177002 288.442230,335.098450 288.771027,328.596802 
z"/>
<path fill="#81A02B" opacity="1.000000" stroke="none" 
	d="
M277.008636,370.848511 
	C278.321228,372.477966 278.495605,371.405853 279.120850,370.539734 
	C281.305420,367.513641 284.443390,366.792358 287.272583,369.021301 
	C290.123932,371.267761 289.912964,374.800323 287.850342,377.454132 
	C285.449432,380.543213 282.269165,380.723328 279.392731,377.718414 
	C278.577606,376.866821 278.505219,374.918030 276.847778,377.271606 
	C274.483276,380.629242 271.219360,380.717682 268.437653,377.842224 
	C265.954407,375.275360 265.892090,371.784058 268.343811,369.389618 
	C271.151184,366.647858 274.376221,367.409119 277.008636,370.848511 
z"/>
<path fill="#7EA323" opacity="1.000000" stroke="none" 
	d="
M244.832153,368.467407 
	C248.545486,367.084595 248.325470,371.433105 250.670639,371.927856 
	C251.672440,370.837372 249.866699,367.968353 252.605331,368.203217 
	C255.146347,368.421143 253.573761,370.856842 254.010468,372.248627 
	C254.057938,372.399902 254.037476,372.583282 254.010544,372.745453 
	C253.675888,374.760437 255.114288,377.575836 253.019531,378.650604 
	C250.666092,379.858063 249.803757,376.336243 247.596161,375.603577 
	C246.788696,380.460327 243.098434,379.723358 240.444626,378.340973 
	C238.720810,377.443024 238.056396,376.457825 236.632767,378.358826 
	C235.965118,379.250336 234.681183,379.186279 233.857300,378.748444 
	C232.156891,377.844910 233.807419,376.722473 234.020660,375.790039 
	C234.456131,373.886017 235.500900,372.107483 235.830170,370.197205 
	C236.124100,368.492126 236.847900,367.976440 238.428833,368.006439 
	C239.929993,368.034912 240.812607,368.369690 241.137955,370.131683 
	C241.488525,372.030273 242.417450,373.822418 243.101730,375.658173 
	C243.149963,375.787537 243.261551,375.893311 243.343689,376.010040 
	C243.555298,375.838959 243.766907,375.667877 244.069061,375.225922 
	C244.896240,372.928223 244.263397,370.811249 244.832153,368.467407 
z"/>
<path fill="#7E9F22" opacity="1.000000" stroke="none" 
	d="
M218.709473,370.979553 
	C218.199829,371.011597 218.029388,371.014648 217.871399,371.060608 
	C217.716965,371.105499 217.440002,371.233032 217.447220,371.258148 
	C217.940689,372.977997 221.509018,370.885345 220.828583,373.833405 
	C220.273422,376.238617 217.388901,374.049408 216.225098,375.832397 
	C216.911194,378.189880 219.701401,376.031067 220.636703,377.791168 
	C214.650406,380.752808 213.416779,379.753357 212.622589,370.553589 
	C211.570953,372.896790 210.581223,374.571381 210.075806,376.381256 
	C209.594955,378.103149 208.772064,378.881592 207.004837,378.987091 
	C205.181229,379.095947 204.804199,377.686554 204.327728,376.555969 
	C203.694931,375.054474 203.381897,373.420319 202.894760,371.854614 
	C202.494827,370.569153 200.940292,368.959534 203.206406,368.226196 
	C204.990707,367.648773 205.843994,369.079102 206.033966,370.796173 
	C206.150192,371.846619 206.765198,372.593567 207.592438,373.201904 
	C209.465057,368.445496 214.424393,366.374451 219.597443,368.059174 
	C220.594055,368.383728 220.924789,368.858032 220.855499,369.791382 
	C220.768173,370.967743 219.878967,370.919800 218.709473,370.979553 
z"/>
<path fill="#81A128" opacity="1.000000" stroke="none" 
	d="
M222.742584,371.316650 
	C224.129990,366.079407 228.327606,367.495117 230.398071,368.608337 
	C232.649155,369.818726 233.714615,373.244049 232.278015,376.258698 
	C230.963135,379.017914 228.988617,380.738281 225.698227,379.220001 
	C224.829025,378.818970 224.055878,378.209778 223.090225,377.376648 
	C222.098785,375.332092 222.637451,373.504333 222.742584,371.316650 
z"/>
<path fill="#81A02B" opacity="1.000000" stroke="none" 
	d="
M290.016113,370.318573 
	C292.607544,366.068207 295.921967,367.683105 298.311401,369.496826 
	C301.001251,371.538574 300.566772,374.839264 298.691132,377.459106 
	C296.670471,380.281525 292.981079,379.670959 291.071533,378.543945 
	C288.590759,377.079712 290.421204,373.434479 290.016113,370.318573 
z"/>
<path fill="#597E2A" opacity="1.000000" stroke="none" 
	d="
M284.277344,358.640930 
	C284.151428,355.104218 282.021729,353.981537 278.714233,353.877594 
	C275.929626,353.790039 273.208954,353.165070 273.288910,349.570526 
	C273.367157,346.052032 276.171204,346.150238 278.672241,345.966949 
	C279.959534,345.872620 281.704926,346.006287 281.906769,344.388306 
	C282.159882,342.359406 280.218567,342.320160 278.820557,341.981232 
	C275.952667,341.285919 272.532013,341.153687 273.724182,336.307678 
	C273.464905,340.301910 276.346222,340.071014 279.284027,340.026123 
	C281.445465,339.993073 284.099884,339.282684 284.023560,343.147095 
	C283.972137,345.750580 283.458618,347.330383 280.470215,347.011139 
	C279.489380,346.906342 278.486298,346.981537 277.494629,347.012939 
	C275.853699,347.064880 274.115417,346.825348 274.046295,349.382904 
	C273.968842,352.249512 275.901978,351.984589 277.721405,352.030487 
	C278.217468,352.042999 278.714142,352.031006 279.210419,352.037903 
	C285.407928,352.124176 285.407928,352.124481 284.277344,358.640930 
z"/>
<path fill="#59772F" opacity="1.000000" stroke="none" 
	d="
M168.760132,328.690735 
	C155.061493,328.872894 155.054245,328.872894 155.033417,342.934906 
	C155.029236,345.755310 155.183350,348.577576 155.122849,351.395935 
	C155.031525,355.648895 156.489761,358.483734 161.544861,358.708344 
	C160.214890,358.870972 158.564819,358.891083 156.917755,358.972260 
	C154.794174,359.076874 153.983612,358.037628 153.990784,355.986206 
	C154.019623,347.729279 154.026718,339.471741 153.954041,331.215210 
	C153.934036,328.944855 154.742294,327.838318 157.112793,327.968079 
	C160.890457,328.174896 164.699158,327.566986 168.760132,328.690735 
z"/>
<path fill="#5D7D32" opacity="1.000000" stroke="none" 
	d="
M337.786377,346.397217 
	C338.544464,346.139343 339.048859,346.177582 339.529175,346.087494 
	C341.632294,345.693024 344.891479,346.896362 345.254974,343.761810 
	C345.619781,340.616119 342.372498,341.406464 340.476410,340.965790 
	C338.460785,340.497345 337.150055,339.484009 337.254578,337.290894 
	C337.363525,335.005463 338.993805,334.208008 340.949951,334.116272 
	C344.350769,333.956696 347.360138,333.493347 346.991882,328.575195 
	C350.514313,328.860168 348.628296,331.592468 348.733795,333.355621 
	C348.843933,335.195404 346.952362,334.872925 345.704010,334.953308 
	C344.386536,335.038208 343.060883,334.998932 341.738770,335.009430 
	C339.924927,335.023865 337.974976,334.690582 338.055847,337.584595 
	C338.139374,340.574097 340.291534,339.793915 341.963501,339.922760 
	C342.785553,339.986115 343.619781,340.008850 344.440704,339.946777 
	C346.791412,339.769043 348.131134,340.402496 348.095245,343.180145 
	C348.061127,345.823364 347.358765,347.251221 344.446716,347.018555 
	C342.640808,346.874268 340.813232,347.001831 338.547913,347.027069 
	C337.907471,346.909271 337.714539,346.771759 337.786377,346.397217 
z"/>
<path fill="#7E9F22" opacity="1.000000" stroke="none" 
	d="
M263.374268,374.558594 
	C261.955719,375.247284 262.048309,376.257263 261.894897,377.524475 
	C261.716431,378.081085 261.606506,378.292023 261.178467,378.664520 
	C260.474060,378.864716 260.087738,378.903381 259.416046,378.876587 
	C257.867279,375.572968 258.724915,372.213959 258.855347,368.555664 
	C260.126038,368.136566 261.130035,367.918335 262.085510,368.050598 
	C263.386841,368.230774 265.348969,367.079590 265.827606,369.182587 
	C266.470978,372.009430 263.257935,370.287720 262.774475,371.893494 
	C263.630432,372.710785 263.902130,373.401489 263.374268,374.558594 
z"/>
<path fill="#59772F" opacity="1.000000" stroke="none" 
	d="
M305.766327,352.667572 
	C295.160339,353.202148 295.188660,353.201630 294.990906,342.469666 
	C294.906403,337.885498 295.327637,333.228607 293.299042,328.500366 
	C295.940582,327.662231 296.034729,329.453400 296.023987,331.429169 
	C295.997070,336.368896 296.277802,341.326477 295.943451,346.243500 
	C295.646271,350.613647 296.880127,352.758392 301.580597,352.074127 
	C302.845306,351.890045 304.188049,352.242004 305.766327,352.667572 
z"/>
<path fill="#597E2A" opacity="1.000000" stroke="none" 
	d="
M309.701782,328.434814 
	C310.037750,336.156311 310.024475,344.119324 310.040039,352.082275 
	C310.044250,354.232880 309.925537,356.431549 311.681213,358.528503 
	C309.705322,359.234161 308.921417,358.205200 308.959198,356.091431 
	C309.122467,346.953552 309.233368,337.814728 309.701782,328.434814 
z"/>
<path fill="#65833F" opacity="1.000000" stroke="none" 
	d="
M332.339050,328.775757 
	C330.016205,335.747131 331.507050,342.673157 331.112335,349.520325 
	C330.951935,352.303101 331.038330,355.100098 331.024658,358.346405 
	C329.258392,357.392792 330.056000,355.407440 330.033173,353.694061 
	C329.940033,346.700256 329.954407,339.703247 330.069519,332.709747 
	C330.094391,331.198669 329.231110,329.324585 331.572693,328.196259 
	C332.226318,328.308350 332.468323,328.446228 332.339050,328.775757 
z"/>
<path fill="#5D7D32" opacity="1.000000" stroke="none" 
	d="
M266.943054,328.286987 
	C267.280853,338.138031 267.184326,348.111420 267.065308,358.448608 
	C265.277466,357.405426 266.016418,355.417511 266.055176,353.723480 
	C266.248260,345.285980 265.352478,336.827209 266.943054,328.286987 
z"/>
<path fill="#65833F" opacity="1.000000" stroke="none" 
	d="
M288.658936,328.412720 
	C289.043274,338.084106 289.089539,348.000031 289.169098,358.372559 
	C288.167511,358.591248 288.039490,357.743896 288.046051,356.926361 
	C288.121826,347.503204 288.224976,338.080261 288.658936,328.412720 
z"/>
<path fill="#59772F" opacity="1.000000" stroke="none" 
	d="
M171.387024,341.864410 
	C172.603592,337.596100 172.044785,333.442505 169.118652,329.278687 
	C174.499817,331.731628 175.275101,335.389801 171.387024,341.864410 
z"/>
<path fill="#5D7D32" opacity="1.000000" stroke="none" 
	d="
M316.919830,350.526062 
	C315.078552,343.750854 316.439209,336.383881 315.991699,328.631348 
	C318.171814,332.863495 316.540680,337.821228 316.971069,342.637299 
	C317.190460,345.091766 316.986755,347.584076 316.919830,350.526062 
z"/>
<path fill="#567726" opacity="1.000000" stroke="none" 
	d="
M259.877319,118.645119 
	C254.667633,118.174011 249.076645,121.101234 243.293411,118.416824 
	C248.516388,117.952606 254.049179,117.679573 259.877319,118.645119 
z"/>
<path fill="#597E2A" opacity="1.000000" stroke="none" 
	d="
M275.595276,334.842407 
	C276.427887,334.532867 277.701935,334.052704 278.968872,334.070770 
	C282.709991,334.124115 284.009125,332.428558 283.026031,328.524017 
	C286.633759,328.675568 284.692993,331.451996 284.863708,333.213562 
	C285.054657,335.183655 283.267914,334.913452 281.995728,334.934662 
	C280.009064,334.967773 278.020966,334.915558 275.595276,334.842407 
z"/>
<path fill="#597E2A" opacity="1.000000" stroke="none" 
	d="
M337.888123,346.484863 
	C338.051147,346.160156 338.074493,346.604218 338.087463,346.825500 
	C337.441986,350.747650 338.703827,352.548279 342.726562,352.059723 
	C344.305817,351.867920 345.953735,352.241272 347.844147,352.683350 
	C346.164032,353.006439 344.210114,352.998108 342.256226,353.001434 
	C337.911621,353.008820 336.214874,351.083954 337.888123,346.484863 
z"/>
<path fill="#597E2A" opacity="1.000000" stroke="none" 
	d="
M332.429352,328.975464 
	C331.967834,328.967438 331.975403,328.568939 331.979858,328.369690 
	C336.000854,328.130188 340.017365,328.089935 344.491180,328.102783 
	C341.002960,329.505493 336.918396,328.828766 332.429352,328.975464 
z"/>
<path fill="#567726" opacity="1.000000" stroke="none" 
	d="
M208.329300,348.798828 
	C208.028854,345.684479 208.018173,342.271149 208.018982,338.392883 
	C209.855850,341.361206 208.919876,344.948242 208.329300,348.798828 
z"/>
<path fill="#85A342" opacity="1.000000" stroke="none" 
	d="
M258.737305,368.322693 
	C259.121002,371.441772 259.098358,374.684967 259.103210,378.369690 
	C256.993439,375.500732 258.217438,371.930908 258.737305,368.322693 
z"/>
<path fill="#4F7E14" opacity="1.000000" stroke="none" 
	d="
M225.952759,356.433105 
	C227.730331,356.238464 229.180511,357.166046 230.711853,358.625458 
	C228.957733,359.002045 226.859894,359.407837 225.952759,356.433105 
z"/>
<path fill="#5D7D32" opacity="1.000000" stroke="none" 
	d="
M326.771698,352.668427 
	C323.907532,352.907410 320.705750,353.615051 317.334717,351.963318 
	C320.152557,351.952301 323.327881,352.149628 326.771698,352.668427 
z"/>
<path fill="#59772F" opacity="1.000000" stroke="none" 
	d="
M234.367828,358.866516 
	C234.056503,357.774811 234.065582,356.739410 234.082825,355.317383 
	C235.300797,355.891418 237.027802,356.666748 237.055283,358.312653 
	C237.071915,359.309357 235.535263,358.792969 234.367828,358.866516 
z"/>
<path fill="#85A342" opacity="1.000000" stroke="none" 
	d="
M263.492737,374.916504 
	C263.087128,374.179230 263.056183,373.495483 263.010864,372.469910 
	C264.059692,372.144073 265.450165,371.449402 265.863220,373.081909 
	C266.270874,374.693115 265.234741,375.077850 263.492737,374.916504 
z"/>
<path fill="#567726" opacity="1.000000" stroke="none" 
	d="
M208.023956,337.654968 
	C206.243210,337.114716 205.363571,335.584442 205.074783,333.269836 
	C206.757141,333.882599 207.287842,335.647858 208.023956,337.654968 
z"/>
<path fill="#567726" opacity="1.000000" stroke="none" 
	d="
M189.117615,359.305298 
	C191.607437,359.003876 194.379868,359.005188 197.612305,359.017944 
	C195.283310,360.746368 192.334305,360.065338 189.117615,359.305298 
z"/>
<path fill="#567726" opacity="1.000000" stroke="none" 
	d="
M183.131287,356.314453 
	C184.817978,356.156250 186.480331,356.690094 187.841003,358.522491 
	C186.050629,358.935791 184.638931,357.847656 183.131287,356.314453 
z"/>
<path fill="#85A342" opacity="1.000000" stroke="none" 
	d="
M244.705872,368.299866 
	C244.869019,370.203247 244.641418,372.227661 244.286713,374.603546 
	C244.211441,372.776978 244.263290,370.598938 244.705872,368.299866 
z"/>
<path fill="#59772F" opacity="1.000000" stroke="none" 
	d="
M305.467590,358.819366 
	C305.389221,357.127808 305.677460,355.423401 305.989746,353.340637 
	C307.377502,354.954132 307.706299,356.914154 305.467590,358.819366 
z"/>
<path fill="#567726" opacity="1.000000" stroke="none" 
	d="
M267.807648,119.645210 
	C265.984650,119.754349 263.886932,119.572327 261.428833,119.260902 
	C263.231232,118.974548 265.396820,118.736137 267.807648,119.645210 
z"/>
<path fill="#85A342" opacity="1.000000" stroke="none" 
	d="
M222.625153,371.127289 
	C222.953201,372.666901 222.966400,374.423981 222.960724,376.619080 
	C221.270981,375.314423 222.065155,373.299255 222.625153,371.127289 
z"/>
<path fill="#59772F" opacity="1.000000" stroke="none" 
	d="
M256.661987,352.087891 
	C255.341675,353.022247 253.549194,353.108734 251.399246,352.284180 
	C252.797531,352.117371 254.513733,352.076843 256.661987,352.087891 
z"/>
<path fill="#567726" opacity="1.000000" stroke="none" 
	d="
M240.575806,119.084702 
	C239.577255,119.810783 238.139786,119.987854 236.357590,119.299210 
	C237.429001,119.130440 238.798233,119.077675 240.575806,119.084702 
z"/>
<path fill="#5D7D32" opacity="1.000000" stroke="none" 
	d="
M327.848541,355.700256 
	C327.536560,355.225708 327.294739,354.410706 327.029968,353.277100 
	C328.033661,353.484497 327.900696,354.450806 327.848541,355.700256 
z"/>
<path fill="#567726" opacity="1.000000" stroke="none" 
	d="
M198.304504,359.030640 
	C198.790665,358.745911 199.621674,358.424561 200.784302,358.045471 
	C200.512207,358.858673 199.558014,358.870544 198.304504,359.030640 
z"/>
<path fill="#567726" opacity="1.000000" stroke="none" 
	d="
M178.122101,348.335144 
	C178.380234,348.549469 178.611618,349.070251 178.923264,349.866211 
	C178.700790,349.641449 178.398071,349.141541 178.122101,348.335144 
z"/>
<path fill="#59772F" opacity="1.000000" stroke="none" 
	d="
M178.728424,337.112610 
	C178.799774,337.478973 178.614059,338.015900 178.284119,338.801025 
	C178.250381,338.460510 178.360855,337.871826 178.728424,337.112610 
z"/>
<path fill="#59772F" opacity="1.000000" stroke="none" 
	d="
M175.270615,354.904724 
	C175.198730,354.536377 175.390503,354.012634 175.722580,353.245850 
	C175.753342,353.584991 175.643814,354.167145 175.270615,354.904724 
z"/>
<path fill="#59772F" opacity="1.000000" stroke="none" 
	d="
M179.751617,334.998352 
	C179.778183,335.379578 179.536636,335.946930 179.124084,336.770630 
	C179.129883,336.412811 179.306686,335.798676 179.751617,334.998352 
z"/>
<path fill="#567726" opacity="1.000000" stroke="none" 
	d="
M183.758743,144.036102 
	C183.776688,144.183548 183.546417,144.429581 183.125809,144.842316 
	C183.127151,144.717560 183.318832,144.426117 183.758743,144.036102 
z"/>
<path fill="#59772F" opacity="1.000000" stroke="none" 
	d="
M173.225189,357.017883 
	C173.211090,356.879517 173.438675,356.609161 173.861282,356.159485 
	C173.859818,356.282043 173.663345,356.583954 173.225189,357.017883 
z"/>
<path fill="#85A342" opacity="1.000000" stroke="none" 
	d="
M261.149109,378.839630 
	C261.058380,378.597839 261.267700,378.380493 261.657318,378.022095 
	C261.696838,378.197815 261.567322,378.525513 261.149109,378.839630 
z"/>
<path fill="#567726" opacity="1.000000" stroke="none" 
	d="
M180.749802,147.020889 
	C180.775131,147.178467 180.544510,147.426605 180.121552,147.841171 
	C180.117447,147.708893 180.305664,147.410172 180.749802,147.020889 
z"/>
<path fill="#567726" opacity="1.000000" stroke="none" 
	d="
M173.794128,154.068481 
	C173.843964,154.206299 173.670364,154.439743 173.337982,154.827164 
	C173.165894,154.643326 173.296402,154.370972 173.794128,154.068481 
z"/>
<path fill="#567726" opacity="1.000000" stroke="none" 
	d="
M174.767303,153.053650 
	C174.798920,153.207520 174.575836,153.451767 174.149323,153.845062 
	C174.152237,153.726669 174.341156,153.443298 174.767303,153.053650 
z"/>
<path fill="#567726" opacity="1.000000" stroke="none" 
	d="
M175.758209,152.042145 
	C175.796982,152.207367 175.571136,152.452148 175.136017,152.841782 
	C175.134842,152.716019 175.323792,152.427719 175.758209,152.042145 
z"/>
<path fill="#567726" opacity="1.000000" stroke="none" 
	d="
M176.742676,150.953278 
	C176.756226,151.084732 176.537628,151.359924 176.133896,151.823364 
	C176.136017,151.706726 176.323273,151.401886 176.742676,150.953278 
z"/>
<path fill="#567726" opacity="1.000000" stroke="none" 
	d="
M179.755371,148.031235 
	C179.757217,148.177246 179.500504,148.417938 179.034790,148.819885 
	C179.049454,148.696060 179.273132,148.410980 179.755371,148.031235 
z"/>
<path fill="#567726" opacity="1.000000" stroke="none" 
	d="
M182.001846,355.240936 
	C182.142960,355.220673 182.402618,355.439056 182.832977,355.846680 
	C182.709244,355.850494 182.414810,355.665039 182.001846,355.240936 
z"/>
<path fill="#567726" opacity="1.000000" stroke="none" 
	d="
M202.973648,330.771881 
	C202.838470,330.780273 202.592102,330.546600 202.171997,330.126770 
	C202.286316,330.137024 202.574371,330.333405 202.973648,330.771881 
z"/>
<path fill="#567726" opacity="1.000000" stroke="none" 
	d="
M203.978912,331.762878 
	C203.837830,331.773224 203.588531,331.534271 203.162659,331.105194 
	C203.280945,331.114563 203.575836,331.314056 203.978912,331.762878 
z"/>
<path fill="#567726" opacity="1.000000" stroke="none" 
	d="
M204.971832,332.763245 
	C204.829620,332.773712 204.582352,332.534058 204.160370,332.103821 
	C204.279373,332.113190 204.573074,332.313141 204.971832,332.763245 
z"/>
<path fill="#567726" opacity="1.000000" stroke="none" 
	d="
M181.762054,146.035660 
	C181.777588,146.180084 181.546539,146.426346 181.125610,146.840225 
	C181.128998,146.717743 181.322250,146.427628 181.762054,146.035660 
z"/>
<path fill="#567726" opacity="1.000000" stroke="none" 
	d="
M182.759674,145.035065 
	C182.776886,145.181976 182.545700,145.428528 182.123901,145.842682 
	C182.125961,145.718414 182.318619,145.426559 182.759674,145.035065 
z"/>
<path fill="#567726" opacity="1.000000" stroke="none" 
	d="
M184.759369,143.035751 
	C184.777878,143.183563 184.548309,143.429718 184.128143,143.841782 
	C184.128799,143.716492 184.320053,143.425293 184.759369,143.035751 
z"/>
<path fill="#567726" opacity="1.000000" stroke="none" 
	d="
M185.758530,142.002289 
	C185.767212,142.133118 185.540863,142.393341 185.128601,142.833710 
	C185.136292,142.719803 185.329895,142.425735 185.758530,142.002289 
z"/>
<path fill="#567726" opacity="1.000000" stroke="none" 
	d="
M179.218658,351.246613 
	C179.390411,351.241455 179.571762,351.497711 179.860443,351.966003 
	C179.735352,351.944763 179.488861,351.721405 179.218658,351.246613 
z"/>
<path fill="#567726" opacity="1.000000" stroke="none" 
	d="
M180.211365,353.207092 
	C180.390762,353.193146 180.582703,353.448303 180.878052,353.923340 
	C180.748016,353.906555 180.495514,353.684174 180.211365,353.207092 
z"/>
<path fill="#59772F" opacity="1.000000" stroke="none" 
	d="
M174.231201,355.956787 
	C174.211990,355.808746 174.439133,355.558380 174.861237,355.145142 
	C174.863312,355.273010 174.670441,355.563721 174.231201,355.956787 
z"/>
<path fill="#000000" opacity="1.000000" stroke="none" 
	d="
M249.697266,125.252983 
	C250.485168,125.041512 250.899155,125.032578 251.623352,125.040558 
	C254.971954,126.000748 258.099823,125.233009 261.562805,125.705093 
	C271.988342,127.964348 282.040222,129.884003 291.320862,134.632019 
	C319.579865,149.089432 336.689880,171.887970 342.879364,202.954269 
	C343.295563,205.043274 342.566620,207.315048 344.031372,209.642700 
	C344.845642,215.341690 344.355865,220.694992 344.349731,226.494385 
	C344.161255,227.381302 344.097137,227.812286 344.004547,228.569000 
	C343.146912,229.949677 343.660736,231.205872 343.311340,232.681885 
	C343.121582,233.427521 343.078033,233.845917 343.022766,234.579758 
	C343.109161,236.063324 342.545715,237.122833 342.316895,238.572525 
	C338.661194,250.478119 334.290253,261.646698 327.224243,271.655823 
	C311.481049,293.956268 290.047119,307.391327 263.152649,310.772339 
	C237.365631,314.014160 213.313477,308.038696 192.954666,291.319763 
	C174.012589,275.764282 161.988922,255.872055 158.922211,231.120850 
	C158.781799,229.987656 158.306610,228.895950 157.905792,227.382721 
	C157.128387,221.323181 157.648956,215.644760 157.675079,209.526703 
	C159.578537,205.422104 159.226913,201.341278 160.170868,197.500610 
	C164.326965,180.590744 172.191849,165.566162 184.409012,153.332687 
	C198.087479,139.635956 214.585632,130.475479 233.914001,127.022934 
	C235.687500,126.706131 237.449417,126.324364 239.620728,125.905411 
	C243.098083,125.073929 246.230392,125.742790 249.697266,125.252983 
z"/>
<path fill="#59772F" opacity="1.000000" stroke="none" 
	d="
M157.683548,209.456390 
	C157.862778,214.734573 157.904999,220.393158 157.885742,226.516144 
	C156.459320,221.286560 156.686722,215.566803 157.683548,209.456390 
z"/>
<path fill="#59772F" opacity="1.000000" stroke="none" 
	d="
M344.353210,226.564972 
	C344.180664,221.613205 344.135956,216.276108 344.152832,210.472778 
	C345.539673,215.377197 345.233734,220.774734 344.353210,226.564972 
z"/>
<path fill="#59772F" opacity="1.000000" stroke="none" 
	d="
M261.580994,125.729370 
	C258.805389,125.798729 255.656677,125.727890 252.220764,125.357262 
	C255.033508,125.086334 258.160522,124.643089 261.580994,125.729370 
z"/>
<path fill="#59772F" opacity="1.000000" stroke="none" 
	d="
M249.627609,125.037643 
	C247.172546,126.931694 243.959717,125.638481 240.465607,125.897820 
	C242.993423,124.616150 246.110077,125.060944 249.627609,125.037643 
z"/>
<path fill="#59772F" opacity="1.000000" stroke="none" 
	d="
M342.335876,238.665619 
	C342.261444,237.704651 342.347656,236.524780 342.722473,235.120071 
	C343.508270,236.175919 343.311066,237.356033 342.335876,238.665619 
z"/>
<path fill="#567726" opacity="1.000000" stroke="none" 
	d="
M343.296265,232.682648 
	C343.250549,231.799301 343.335968,230.589462 343.698730,229.137177 
	C343.793182,230.048538 343.610291,231.202362 343.296265,232.682648 
z"/>
<path fill="#000000" opacity="1.000000" stroke="none" 
	d="
M187.176666,349.124878 
	C185.859634,345.509979 185.252716,342.141205 187.061142,338.849060 
	C189.007263,335.306335 193.392120,334.018951 196.808014,335.881409 
	C200.846588,338.083282 202.204483,344.530457 199.434998,348.889832 
	C198.744186,349.977203 197.637863,350.800568 196.439819,351.943542 
	C194.759262,353.119354 193.257339,353.158722 191.291443,352.396301 
	C190.889740,352.155853 190.494934,352.040619 190.291168,352.012817 
	C188.978958,351.330231 187.763062,350.789093 187.176666,349.124878 
z"/>
<path fill="#567726" opacity="1.000000" stroke="none" 
	d="
M191.101089,352.390350 
	C192.352493,352.113037 193.815262,352.070251 195.717575,352.084595 
	C194.693130,353.816040 193.103806,354.233551 191.101089,352.390350 
z"/>
<path fill="#567726" opacity="1.000000" stroke="none" 
	d="
M187.091049,349.181458 
	C187.924515,349.714264 188.846939,350.576416 189.928391,351.711761 
	C188.678009,351.677582 187.599762,350.981049 187.091049,349.181458 
z"/>
<path fill="#000000" opacity="1.000000" stroke="none" 
	d="
M219.116455,335.550354 
	C221.475937,332.850494 223.069962,334.959961 224.440048,336.262024 
	C225.360413,337.136688 225.200989,338.744965 224.346390,339.912323 
	C223.438263,341.152802 222.004837,341.167450 220.756165,340.853790 
	C217.856628,340.125366 219.440659,337.658173 219.116455,335.550354 
z"/>
<path fill="#000000" opacity="1.000000" stroke="none" 
	d="
M161.848999,347.373840 
	C164.135773,347.215240 166.651459,346.155151 167.744827,348.778564 
	C168.333237,350.190338 168.149704,351.731049 166.039459,352.628387 
	C161.470352,353.568909 161.470352,353.568909 161.848999,347.373840 
z"/>
<path fill="#000000" opacity="1.000000" stroke="none" 
	d="
M164.261307,334.755066 
	C166.938705,336.469116 165.816391,337.837646 164.330368,339.084869 
	C163.562561,339.729279 162.205765,340.178741 162.277863,338.708679 
	C162.345734,337.324890 160.176514,334.578918 164.261307,334.755066 
z"/>
<path fill="#567726" opacity="1.000000" stroke="none" 
	d="
M161.960403,347.325623 
	C162.578079,349.234406 160.072479,352.915863 165.429565,352.936005 
	C161.195480,353.737488 160.669464,353.049866 161.960403,347.325623 
z"/>
<path fill="#000000" opacity="1.000000" stroke="none" 
	d="
M273.909027,372.217285 
	C273.821106,374.079987 274.716705,376.295288 272.244690,376.348602 
	C271.075378,376.373840 269.835907,374.929993 270.101715,373.450500 
	C270.490295,371.287933 271.723755,370.326263 273.909027,372.217285 
z"/>
<path fill="#000000" opacity="1.000000" stroke="none" 
	d="
M285.902679,372.979889 
	C285.772949,375.163635 284.885681,376.896027 283.020447,376.166718 
	C281.225555,375.464844 281.543488,372.993988 282.360260,371.813171 
	C283.477417,370.198120 284.904572,371.270874 285.902679,372.979889 
z"/>
<path fill="#000000" opacity="1.000000" stroke="none" 
	d="
M226.784149,375.832336 
	C225.929596,375.312164 225.425781,375.024567 225.277344,374.609802 
	C224.694702,372.981750 225.171280,371.684784 226.877502,371.151550 
	C227.845581,370.849030 229.112244,371.015137 229.313217,372.124268 
	C229.592438,373.665131 226.772263,372.397003 227.032944,374.600647 
	C227.133545,375.301849 227.215866,375.654175 226.784149,375.832336 
z"/>
<path fill="#000000" opacity="1.000000" stroke="none" 
	d="
M226.855850,375.126587 
	C227.527008,375.291901 228.924728,374.603882 228.419937,375.974152 
	C228.110413,376.814392 227.299072,376.937653 226.451675,375.882294 
	C226.400238,375.539978 226.530365,375.421814 226.855850,375.126587 
z"/>
<path fill="#000000" opacity="1.000000" stroke="none" 
	d="
M293.093323,372.323120 
	C295.143707,370.283325 296.382355,371.229065 296.867889,373.274384 
	C297.215942,374.740570 296.211609,375.835236 294.727448,375.894745 
	C292.220551,375.995300 293.343201,373.928406 293.093323,372.323120 
z"/>
<path fill="#4E7D14" opacity="1.000000" stroke="none" 
	d="
M335.243622,227.684967 
	C335.034302,228.121017 334.971405,228.574081 334.917053,228.796234 
	C334.149597,230.419281 334.687408,231.939636 334.251190,233.700638 
	C333.004639,245.547607 328.355682,255.779709 322.020721,265.186707 
	C309.253845,284.144531 291.695831,296.692963 269.241913,301.223175 
	C243.461761,306.424469 219.684250,301.679749 198.537750,285.115936 
	C184.321106,273.980164 174.951981,259.815430 169.472000,242.833710 
	C169.172989,241.907150 169.152802,240.890610 168.995697,239.521332 
	C168.147064,238.064499 168.660187,236.795517 168.304764,235.307312 
	C168.153854,234.978546 168.041992,234.559555 168.011200,234.344910 
	C167.161255,233.075027 167.649780,231.823471 167.325974,230.342346 
	C167.132782,229.592728 167.075104,229.174286 167.004608,228.438965 
	C165.900986,222.018890 166.748459,215.868942 166.767456,209.309906 
	C167.013748,208.439407 167.040924,208.003250 167.127731,207.244827 
	C167.807480,205.494003 167.316681,203.968109 167.782242,202.198608 
	C167.990189,201.889435 168.043564,201.436081 168.102203,201.215500 
	C168.676559,200.197693 168.389374,199.256149 168.807587,198.129822 
	C170.566513,186.913467 175.632370,177.416824 181.993149,168.725266 
	C194.368042,151.815765 210.882294,139.854904 231.280899,135.695007 
	C257.207489,130.407791 281.892731,134.148254 303.341278,151.727356 
	C319.478943,164.953690 329.975616,181.319275 334.372528,201.697800 
	C334.837982,203.855011 334.921997,205.954025 335.018677,208.533340 
	C336.070862,215.040359 335.264130,221.156158 335.243622,227.684967 
z"/>
<path fill="#59772F" opacity="1.000000" stroke="none" 
	d="
M335.344177,227.820602 
	C335.032288,222.049652 335.030243,215.978287 335.029236,209.437103 
	C337.014191,215.091873 335.830902,221.322952 335.344177,227.820602 
z"/>
<path fill="#567726" opacity="1.000000" stroke="none" 
	d="
M166.677246,209.178680 
	C166.995575,214.972397 167.004562,221.069260 167.002670,227.644104 
	C164.940079,221.970367 166.105316,215.710999 166.677246,209.178680 
z"/>
<path fill="#567726" opacity="1.000000" stroke="none" 
	d="
M334.330780,233.761536 
	C334.238770,232.576279 334.420685,231.136795 334.732635,229.357849 
	C334.776703,230.514709 334.690704,232.011017 334.330780,233.761536 
z"/>
<path fill="#567726" opacity="1.000000" stroke="none" 
	d="
M167.714447,202.151733 
	C167.804169,203.339935 167.618149,204.790451 167.309753,206.581757 
	C167.271149,205.419708 167.354935,203.916885 167.714447,202.151733 
z"/>
<path fill="#567726" opacity="1.000000" stroke="none" 
	d="
M168.098267,235.349228 
	C168.425629,236.123444 168.697403,237.268341 168.978851,238.769958 
	C167.744598,238.248932 168.084824,236.931335 168.098267,235.349228 
z"/>
<path fill="#567726" opacity="1.000000" stroke="none" 
	d="
M167.129852,230.378220 
	C167.444824,231.148712 167.699188,232.286240 167.966980,233.777008 
	C166.730301,233.256683 167.105484,231.945587 167.129852,230.378220 
z"/>
<path fill="#567726" opacity="1.000000" stroke="none" 
	d="
M168.721909,198.072052 
	C168.800110,198.698532 168.610703,199.546127 168.291046,200.694321 
	C168.258636,200.094345 168.356461,199.193756 168.721909,198.072052 
z"/>
<path fill="#000000" opacity="1.000000" stroke="none" 
	d="
M240.847351,141.206512 
	C241.126694,141.024673 241.598785,140.956451 241.828888,140.893677 
	C246.720062,140.104080 251.408356,140.658081 256.527344,140.680969 
	C258.084106,141.078369 259.195679,141.327789 260.638428,141.674561 
	C262.391449,141.308380 263.847198,141.534103 265.640808,141.822357 
	C278.089966,145.189209 289.431091,149.919540 299.331573,157.714325 
	C313.506958,168.874756 322.550537,183.497253 326.710510,200.823624 
	C331.810181,222.063843 328.076416,242.189774 316.212402,260.524109 
	C303.596008,280.021210 285.553864,291.448242 262.602661,295.100250 
	C260.977631,295.358826 259.370239,295.728119 257.333496,296.104279 
	C252.943649,296.894257 248.942078,296.337311 244.522018,296.315735 
	C231.137970,294.353699 219.085312,290.174774 207.994080,283.118317 
	C194.340622,274.431671 185.181412,262.144745 179.001587,247.488968 
	C174.974625,237.938812 172.530807,227.788651 173.137421,217.491959 
	C174.908691,187.426514 187.978455,164.120377 215.312866,149.724945 
	C222.282135,146.054626 229.583481,143.661362 237.589127,141.916687 
	C238.776047,141.321289 239.717194,141.604202 240.847351,141.206512 
z"/>
<path fill="#567726" opacity="1.000000" stroke="none" 
	d="
M256.588684,140.696320 
	C252.307175,140.866180 247.641830,140.903412 242.517746,140.885773 
	C246.752457,139.585571 251.472473,139.746140 256.588684,140.696320 
z"/>
<path fill="#597E2A" opacity="1.000000" stroke="none" 
	d="
M244.459869,296.296692 
	C248.059769,296.126617 252.033569,296.089630 256.459839,296.107605 
	C252.912155,297.427704 248.881271,297.304199 244.459869,296.296692 
z"/>
<path fill="#567726" opacity="1.000000" stroke="none" 
	d="
M265.697327,141.934540 
	C264.592102,142.032104 263.195679,141.978928 261.384430,141.848816 
	C262.450165,141.139832 263.929352,141.011063 265.697327,141.934540 
z"/>
<path fill="#567726" opacity="1.000000" stroke="none" 
	d="
M240.801910,141.062378 
	C240.554077,141.983551 239.595245,141.912292 238.329041,141.900238 
	C238.814468,141.604431 239.645798,141.352264 240.801910,141.062378 
z"/>
<path fill="#4E7D13" opacity="1.000000" stroke="none" 
	d="
M233.983307,273.081268 
	C215.279922,266.722626 204.208832,253.845322 199.710953,235.256165 
	C196.480606,221.905518 196.899689,208.395767 199.083755,194.929413 
	C199.625198,191.591003 202.772705,190.878647 206.577835,193.412842 
	C214.428680,198.641479 222.224457,203.963425 229.872543,209.483032 
	C237.753998,215.171097 244.149155,222.301773 249.276413,230.583633 
	C250.698090,232.880005 251.714218,234.259583 254.273972,230.765701 
	C262.424561,219.640778 273.733002,212.051895 285.347382,204.962891 
	C289.441559,202.463974 293.566071,199.997116 297.805145,197.758835 
	C301.154938,195.990128 303.626740,197.529938 303.862427,200.988724 
	C304.785736,214.539856 305.068512,228.091385 301.228546,241.353653 
	C295.195282,262.191284 281.025665,274.132355 260.275543,278.950623 
	C257.350220,279.629883 254.448273,280.167603 251.426804,280.022491 
	C249.101166,279.910828 246.802933,280.236633 245.766373,277.195740 
	C245.193085,275.513885 243.072556,275.320557 241.526443,275.135406 
	C239.011017,274.834229 236.684982,274.074860 233.983307,273.081268 
z"/>
<path fill="#4F7E14" opacity="1.000000" stroke="none" 
	d="
M248.221634,176.728577 
	C246.807053,180.687759 250.138519,181.634750 251.886780,183.057999 
	C253.586548,184.441803 254.406860,181.752960 255.581055,180.867722 
	C256.749084,179.987122 257.671906,178.781281 258.835938,177.421783 
	C257.997833,174.718689 258.683655,172.216980 258.756226,169.344635 
	C262.313232,159.913635 272.558838,156.325348 278.567719,162.061371 
	C281.772827,165.120941 283.214355,171.403305 281.631714,175.414810 
	C279.683807,180.352264 274.210114,184.350433 268.702942,183.843567 
	C264.964996,183.499542 262.555450,184.595825 260.088867,187.181564 
	C258.167969,189.195251 258.583313,190.299911 260.327423,191.945816 
	C263.959229,195.373093 267.395569,199.006638 270.998444,202.465652 
	C273.067078,204.451675 274.090637,206.887619 272.054352,208.997177 
	C269.954498,211.172577 267.510345,210.002335 265.545471,208.011490 
	C262.036896,204.456543 258.345459,201.070236 255.004044,197.366608 
	C253.013260,195.160004 251.759186,195.441666 249.897614,197.442566 
	C246.497482,201.097183 242.834900,204.506226 239.335587,208.070496 
	C237.342346,210.100754 234.932831,211.135849 232.851379,208.916565 
	C231.041580,206.986908 231.881760,204.637299 233.801285,202.759872 
	C237.491272,199.150864 241.105316,195.464081 244.742233,191.800980 
	C245.887360,190.647598 247.610687,189.389420 245.355682,187.902527 
	C243.654541,186.780869 242.954697,182.760605 239.569321,185.730423 
	C237.128189,187.871948 234.778122,187.340836 232.577560,185.068909 
	C228.986755,181.361572 225.231186,177.812439 221.678848,174.069626 
	C218.694931,170.925720 219.313034,169.043930 222.933197,166.882385 
	C225.575974,165.304413 226.534012,161.590805 230.049866,160.355927 
	C230.490845,159.518982 230.480774,158.934570 230.819260,158.179016 
	C230.975525,157.946930 231.003983,157.996628 230.975357,157.996063 
	C231.183807,157.793518 231.419800,157.590240 231.856720,157.268433 
	C232.789856,157.122299 233.520966,157.093445 234.614960,157.117752 
	C235.169510,157.295883 235.361130,157.420853 235.810394,157.772522 
	C236.068024,157.999207 235.995605,158.011734 235.989319,157.975525 
	C236.206131,158.203568 236.450760,158.446304 236.917908,158.830017 
	C240.660583,162.446472 244.199402,165.903320 247.893616,169.654816 
	C249.233337,172.005249 249.275146,174.134232 248.221634,176.728577 
z"/>
<path fill="#59772F" opacity="1.000000" stroke="none" 
	d="
M248.300446,176.943390 
	C248.008743,175.040054 248.031250,172.941238 248.051376,170.395935 
	C250.854614,171.997864 250.642181,174.297379 248.300446,176.943390 
z"/>
<path fill="#59772F" opacity="1.000000" stroke="none" 
	d="
M258.660034,169.186890 
	C258.974030,171.355621 258.983643,173.784256 258.981415,176.669189 
	C257.191986,174.691696 258.084167,172.044418 258.660034,169.186890 
z"/>
<path fill="#567726" opacity="1.000000" stroke="none" 
	d="
M230.719299,158.106201 
	C230.791107,158.466614 230.606689,158.986298 230.291595,159.750824 
	C230.261627,159.418945 230.362350,158.842209 230.719299,158.106201 
z"/>
<path fill="#567726" opacity="1.000000" stroke="none" 
	d="
M236.994324,158.753571 
	C236.863312,158.762146 236.604858,158.534637 236.164703,158.123230 
	C236.277649,158.132050 236.572266,158.324783 236.994324,158.753571 
z"/>
<path fill="#567726" opacity="1.000000" stroke="none" 
	d="
M235.964203,157.770950 
	C235.806107,157.843002 235.556961,157.668579 235.149216,157.323425 
	C235.272049,157.294846 235.566208,157.418762 235.964203,157.770950 
z"/>
<path fill="#567726" opacity="1.000000" stroke="none" 
	d="
M231.803116,157.175903 
	C231.830292,157.362930 231.588913,157.558762 231.140671,157.867096 
	C231.146973,157.730560 231.347229,157.465622 231.803116,157.175903 
z"/>
<path fill="#000000" opacity="1.000000" stroke="none" 
	d="
M291.279602,215.818741 
	C291.150208,216.012955 291.038513,216.420792 291.017273,216.631149 
	C290.594482,217.344666 290.514069,217.968796 290.145996,218.795273 
	C289.943695,219.029785 290.010040,219.000961 289.995667,218.967773 
	C289.601105,219.400467 289.501526,219.966110 289.283875,220.792999 
	C289.155457,221.050568 289.038818,221.439392 289.008545,221.640091 
	C288.842468,222.027740 288.706635,222.214691 288.378845,222.690323 
	C288.186951,222.978989 288.065918,223.433411 288.026794,223.665253 
	C287.843658,224.073029 287.699707,224.248932 287.365234,224.707596 
	C279.305847,240.452057 269.324982,254.339447 256.451752,266.049835 
	C255.303528,267.094299 254.369339,269.315338 252.533005,268.424774 
	C251.061569,267.711121 251.072067,265.660553 251.012314,263.946960 
	C250.454086,247.938782 257.719757,235.522675 269.310242,225.441818 
	C276.343018,219.324982 283.923920,213.786453 292.436218,209.711426 
	C293.538300,211.506302 291.637451,212.688705 291.972260,214.519714 
	C291.781982,215.126358 291.599274,215.378174 291.279602,215.818741 
z"/>
<path fill="#000000" opacity="1.000000" stroke="none" 
	d="
M229.309769,218.689911 
	C235.821762,224.641891 241.169388,230.960358 245.377029,238.448441 
	C248.319336,243.684723 245.256180,247.679047 244.297867,252.108109 
	C243.801636,254.401459 242.256775,252.734589 241.397629,251.929367 
	C232.292450,243.395721 223.990921,234.210632 217.940613,223.169357 
	C214.941589,217.696411 212.066711,212.189697 210.041031,205.275635 
	C217.791916,208.556763 223.314255,213.662643 229.309769,218.689911 
z"/>
<path fill="#000000" opacity="1.000000" stroke="none" 
	d="
M221.812164,242.154816 
	C228.084076,249.734070 234.484192,256.670380 242.362793,262.072662 
	C244.215149,263.342804 244.418167,265.245026 243.643860,266.927582 
	C242.836517,268.681854 241.160095,267.788635 239.714706,267.395905 
	C220.882858,262.279266 208.415466,247.899506 205.869003,228.787613 
	C205.296082,224.487686 204.933487,220.253891 205.448456,215.755035 
	C210.273026,224.833908 215.395706,233.694077 221.812164,242.154816 
z"/>
<path fill="#000000" opacity="1.000000" stroke="none" 
	d="
M265.182434,268.862091 
	C277.800568,254.882187 288.658173,240.226761 296.774109,223.458694 
	C296.848114,224.729263 296.922119,225.999817 296.969238,227.624573 
	C296.079773,229.339172 296.706360,230.865860 296.316467,232.634949 
	C293.433289,241.043243 291.502899,249.354279 285.702423,256.189087 
	C280.506744,262.311249 274.409790,266.632996 266.472595,269.080292 
	C265.772339,269.201019 265.443695,269.283356 265.182434,268.862091 
z"/>
<path fill="#59772F" opacity="1.000000" stroke="none" 
	d="
M296.312744,232.639435 
	C296.240692,231.473419 296.308838,229.972061 296.659668,228.224731 
	C296.779236,229.420532 296.616119,230.862305 296.312744,232.639435 
z"/>
<path fill="#000000" opacity="1.000000" stroke="none" 
	d="
M265.888916,268.927673 
	C265.718384,269.821838 265.189026,270.063049 264.518707,269.530426 
	C264.461914,269.485291 264.766144,268.985870 265.076233,268.527924 
	C265.392151,268.484497 265.534485,268.610657 265.888916,268.927673 
z"/>
<path fill="#567726" opacity="1.000000" stroke="none" 
	d="
M289.287598,220.797333 
	C289.267487,220.466721 289.379486,219.882858 289.736389,219.116791 
	C289.794098,219.471085 289.606873,220.007599 289.287598,220.797333 
z"/>
<path fill="#567726" opacity="1.000000" stroke="none" 
	d="
M290.106598,218.772568 
	C290.128174,218.432190 290.312622,217.834579 290.746521,217.039246 
	C290.753815,217.399460 290.511658,217.957397 290.106598,218.772568 
z"/>
<path fill="#567726" opacity="1.000000" stroke="none" 
	d="
M291.292847,215.827728 
	C291.272919,215.714462 291.395630,215.415985 291.737793,214.993286 
	C291.791138,215.132202 291.617218,215.390015 291.292847,215.827728 
z"/>
<path fill="#567726" opacity="1.000000" stroke="none" 
	d="
M288.328247,222.796051 
	C288.123383,222.609329 288.244598,222.316010 288.764435,221.969910 
	C288.819275,222.105194 288.649689,222.362640 288.328247,222.796051 
z"/>
<path fill="#567726" opacity="1.000000" stroke="none" 
	d="
M287.320190,224.815704 
	C287.128510,224.626984 287.255890,224.340942 287.772278,224.014679 
	C287.825134,224.153137 287.651184,224.401123 287.320190,224.815704 
z"/>
<path fill="#000000" opacity="1.000000" stroke="none" 
	d="
M274.350830,173.008301 
	C273.760895,173.669708 273.418152,174.031357 273.079041,174.396439 
	C271.321106,176.289078 269.502777,178.174149 266.743378,176.111282 
	C264.663788,174.556625 264.593842,172.660126 265.919495,170.440369 
	C267.575043,167.668198 269.904694,166.273193 272.968475,167.235214 
	C275.777222,168.117157 275.031158,170.580505 274.350830,173.008301 
z"/>
</svg>