<?xml version="1.0" encoding="UTF-8"?>
<svg version="1.1" xmlns="http://www.w3.org/2000/svg" width="500" height="500">
<path d="M0 0 C10.125 0 10.125 0 14 2 C12.54884678 6.57888152 10.79418096 10.97649435 8.875 15.375 C8.59785156 16.01566406 8.32070313 16.65632813 8.03515625 17.31640625 C7.35899615 18.87856925 6.67981293 20.43942315 6 22 C7.52367187 21.93039063 7.52367187 21.93039063 9.078125 21.859375 C22.99421644 21.41293293 32.88017856 24.24191055 44 33 C42.68 34.32 41.36 35.64 40 37 C40.78375 37.886875 41.5675 38.77375 42.375 39.6875 C47.32133097 45.284664 47.4921323 51.08060142 47.37890625 58.296875 C46.42286849 67.64041927 41.55099016 75.61985062 36 83 C35.36449219 83.86238281 34.72898437 84.72476563 34.07421875 85.61328125 C25.67975494 96.46316408 13.04748281 109.32157529 -1 112 C-11.30814501 112.68720967 -17.44137793 109.18118317 -25.12255859 102.62402344 C-30.58178834 97.73902852 -35.1305577 92.22910221 -39 86 C-39 85.34 -39 84.68 -39 84 C-39.66 84 -40.32 84 -41 84 C-41.0825 84.9075 -41.165 85.815 -41.25 86.75 C-41.73929857 90.30461023 -42.8072201 93.49545695 -44 96.875 C-45.33654871 100.67939043 -46.23749954 104.03968044 -46.5 108.0625 C-47 112 -47 112 -48.625 114.0625 C-51.98080294 115.38715906 -54.40934936 115.36515091 -58 115 C-59.04285156 114.50628906 -60.08570313 114.01257813 -61.16015625 113.50390625 C-65.46044931 111.58583089 -69.47766896 111.60621857 -74.125 111.5625 C-85.87683919 111.1753138 -96.92817818 109.00663726 -106 101 C-108.63686001 98.1744184 -110.87050753 95.22211164 -113 92 C-113.58394531 91.12988281 -113.58394531 91.12988281 -114.1796875 90.2421875 C-118.20915303 83.27652228 -119.3375405 74.78172533 -121 67 C-123.475 67.495 -123.475 67.495 -126 68 C-127.32 63.71 -128.64 59.42 -130 55 C-131.32 56.2375 -132.64 57.475 -134 58.75 C-138.11412766 62.42728685 -141.95952101 64.80051826 -147 67 C-149.28974774 61.50825443 -149.33309119 56.47289788 -149.3125 50.625 C-149.32861328 49.7175 -149.34472656 48.81 -149.36132812 47.875 C-149.36651439 40.67645858 -148.37208563 34.96510704 -143.75 29.1875 C-137.41644013 24.14944102 -132.78620123 23.68875085 -124.8671875 24.08984375 C-121.80530713 23.99389927 -119.75332498 23.29597897 -117 22 C-117.33 21.278125 -117.66 20.55625 -118 19.8125 C-119.00603529 16.98302573 -119.16977402 14.97104534 -119 12 C-117.2265625 11.28125 -117.2265625 11.28125 -115 11 C-113.2109375 12.40625 -113.2109375 12.40625 -111.375 14.5 C-102.56109436 23.66839544 -96.67896311 26.58245428 -84.17578125 26.8515625 C-72.58505114 27.12909071 -59.61301652 31.74109324 -51.08984375 39.7265625 C-50.05537109 40.85191406 -50.05537109 40.85191406 -49 42 C-48.731875 41.43152344 -48.46375 40.86304688 -48.1875 40.27734375 C-45.07928458 34.15293245 -41.41909859 30.18198427 -36 26 C-36.99 25.319375 -36.99 25.319375 -38 24.625 C-38.99 23.820625 -38.99 23.820625 -40 23 C-40 22.34 -40 21.68 -40 21 C-29.50410501 16.01889729 -18.15848642 15.19202318 -7 18.5 C-5.68 18.995 -4.36 19.49 -3 20 C-2.01 13.4 -1.02 6.8 0 0 Z M-121 26 C-121.33 28.64 -121.66 31.28 -122 34 C-120.12119128 33.95231597 -120.12119128 33.95231597 -118 33 C-114.76034025 28.95472475 -114.76034025 28.95472475 -114 24 C-116.6465335 24 -118.5808163 24.98139634 -121 26 Z M-114 29 C-115.21690533 30.76529595 -115.21690533 30.76529595 -116 33 C-115.21690533 35.23470405 -115.21690533 35.23470405 -114 37 C-113.34 37 -112.68 37 -112 37 C-112 34.36 -112 31.72 -112 29 C-112.66 29 -113.32 29 -114 29 Z " fill="#FCD047" transform="translate(296,206)"/>
<path d="M0 0 C10.125 0 10.125 0 14 2 C12.54884678 6.57888152 10.79418096 10.97649435 8.875 15.375 C8.59785156 16.01566406 8.32070313 16.65632813 8.03515625 17.31640625 C7.35899615 18.87856925 6.67981293 20.43942315 6 22 C7.52367187 21.93039063 7.52367187 21.93039063 9.078125 21.859375 C22.99421644 21.41293293 32.88017856 24.24191055 44 33 C42.68 34.32 41.36 35.64 40 37 C40.78375 37.886875 41.5675 38.77375 42.375 39.6875 C47.32133097 45.284664 47.4921323 51.08060142 47.37890625 58.296875 C46.42286849 67.64041927 41.55099016 75.61985062 36 83 C35.36449219 83.86238281 34.72898437 84.72476563 34.07421875 85.61328125 C25.67975494 96.46316408 13.04748281 109.32157529 -1 112 C-11.31156615 112.68743774 -17.43823609 109.17719584 -25.12475586 102.62402344 C-30.99735285 97.37452506 -36.45897761 91.08204479 -40 84 C-40.0488207 82.52163694 -40.03683805 81.04099489 -39.9921875 79.5625 C-39.96705078 78.21865234 -39.96705078 78.21865234 -39.94140625 76.84765625 C-39.89785906 74.98025017 -39.84606288 73.11301427 -39.78515625 71.24609375 C-39.65546755 62.95780676 -40.92946302 55.69201656 -45.75 48.8125 C-47.71244778 45.8658639 -47.99804977 45.1131132 -48.0625 41.375 C-45.86344539 34.38976771 -41.57136319 30.41327084 -36 26 C-36.66 25.54625 -37.32 25.0925 -38 24.625 C-38.66 24.08875 -39.32 23.5525 -40 23 C-40 22.34 -40 21.68 -40 21 C-29.50410501 16.01889729 -18.15848642 15.19202318 -7 18.5 C-5.68 18.995 -4.36 19.49 -3 20 C-1.515 10.1 -1.515 10.1 0 0 Z " fill="#F16855" transform="translate(296,206)"/>
<path d="M0 0 C10.125 0 10.125 0 14 2 C12.54884678 6.57888152 10.79418096 10.97649435 8.875 15.375 C8.59785156 16.01566406 8.32070313 16.65632813 8.03515625 17.31640625 C7.35899615 18.87856925 6.67981293 20.43942315 6 22 C7.52367187 21.93039063 7.52367187 21.93039063 9.078125 21.859375 C22.99421644 21.41293293 32.88017856 24.24191055 44 33 C36.65940746 38.98122355 29.15412435 38.66768983 20 38 C17.0344761 37.27332063 14.754144 36.34896849 12 35 C11.896875 36.03125 11.79375 37.0625 11.6875 38.125 C11.00872203 41.95083945 9.88841205 44.63370025 8 48 C7.34 48 6.68 48 6 48 C6 48.66 6 49.32 6 50 C2.77208445 52.1519437 1.71599191 52.20086443 -2 52 C-2 51.34 -2 50.68 -2 50 C-2.598125 49.71125 -3.19625 49.4225 -3.8125 49.125 C-8.78378378 46.56833977 -8.78378378 46.56833977 -9.68359375 44.203125 C-10.04479998 41.68805939 -10.09592646 39.29041065 -10.0625 36.75 C-10.05347656 35.85796875 -10.04445313 34.9659375 -10.03515625 34.046875 C-10.02355469 33.37140625 -10.01195312 32.6959375 -10 32 C-10.75023437 32.04640625 -11.50046875 32.0928125 -12.2734375 32.140625 C-22.66671465 32.50713855 -31.84690557 29.695558 -40 23 C-40 22.34 -40 21.68 -40 21 C-29.50410501 16.01889729 -18.15848642 15.19202318 -7 18.5 C-5.68 18.995 -4.36 19.49 -3 20 C-1.515 10.1 -1.515 10.1 0 0 Z " fill="#438436" transform="translate(296,206)"/>
<path d="M0 0 C1.4540625 0.7734375 1.4540625 0.7734375 2.9375 1.5625 C9.32241257 4.75495628 14.78309688 5.16056724 21.9375 5.5625 C22.4325 12.4925 22.4325 12.4925 22.9375 19.5625 C19.82526687 15.41285583 19.41746422 13.55412787 18.9375 8.5625 C17.968125 8.624375 16.99875 8.68625 16 8.75 C11.32190054 8.77875881 7.26274418 7.21021207 2.9375 5.5625 C2.628125 6.18125 2.31875 6.8 2 7.4375 C1.3125 8.8125 0.625 10.1875 -0.0625 11.5625 C-0.7225 11.5625 -1.3825 11.5625 -2.0625 11.5625 C-2.0625 12.2225 -2.0625 12.8825 -2.0625 13.5625 C-2.7225 13.5625 -3.3825 13.5625 -4.0625 13.5625 C-3.61467146 16.9598045 -3.15238602 20.35499102 -2.6875 23.75 C-2.56117188 24.70970703 -2.43484375 25.66941406 -2.3046875 26.65820312 C-2.17578125 27.58955078 -2.046875 28.52089844 -1.9140625 29.48046875 C-1.74124756 30.76087036 -1.74124756 30.76087036 -1.56494141 32.06713867 C-1.02711872 34.73822017 -0.14497448 37.0673377 0.9375 39.5625 C3.9075 39.8925 6.8775 40.2225 9.9375 40.5625 C7.2975 39.2425 4.6575 37.9225 1.9375 36.5625 C1.9375 35.2425 1.9375 33.9225 1.9375 32.5625 C6.49369725 32.83863317 9.00107653 34.91413391 12.38671875 37.69921875 C14.40272865 40.1214775 15.08404428 42.55648602 15.9375 45.5625 C13.47876232 45.42191524 11.02064825 45.27527001 8.5625 45.125 C7.86382812 45.08568359 7.16515625 45.04636719 6.4453125 45.00585938 C1.1640625 44.67578125 1.1640625 44.67578125 -1.0625 43.5625 C-1.0625 42.2425 -1.0625 40.9225 -1.0625 39.5625 C-1.7225 39.5625 -2.3825 39.5625 -3.0625 39.5625 C-3.3925 40.2225 -3.7225 40.8825 -4.0625 41.5625 C-4.3925 41.5625 -4.7225 41.5625 -5.0625 41.5625 C-6.58538499 50.55859133 -6.58538499 50.55859133 -4.8984375 59.26953125 C-2.5451513 62.39372155 -0.32716346 64.38605769 2.9375 66.5625 C2.9375 67.5525 2.9375 68.5425 2.9375 69.5625 C4.2575 69.5625 5.5775 69.5625 6.9375 69.5625 C9.3195551 71.71215948 11.42334822 73.98902301 13.5625 76.375 C15.01311063 77.88930994 15.01311063 77.88930994 17.9375 77.5625 C17.9375 78.2225 17.9375 78.8825 17.9375 79.5625 C26.44253133 80.56665021 32.99574546 80.98567006 40.9375 77.5625 C40.9375 76.9025 40.9375 76.2425 40.9375 75.5625 C43.5775 75.2325 46.2175 74.9025 48.9375 74.5625 C48.9375 73.9025 48.9375 73.2425 48.9375 72.5625 C49.5975 72.5625 50.2575 72.5625 50.9375 72.5625 C49.9475 68.6025 49.9475 68.6025 48.9375 64.5625 C50.22377711 63.38989389 51.51669783 62.2245717 52.8125 61.0625 C53.53179687 60.4128125 54.25109375 59.763125 54.9921875 59.09375 C56.9375 57.5625 56.9375 57.5625 58.9375 57.5625 C60.14378008 55.23035852 61.1029738 53.06607861 61.9375 50.5625 C62.9275 50.5625 63.9175 50.5625 64.9375 50.5625 C65.5975 46.9325 66.2575 43.3025 66.9375 39.5625 C67.5975 39.5625 68.2575 39.5625 68.9375 39.5625 C70.0625 44.3125 70.0625 44.3125 68.9375 46.5625 C70.4225 47.0575 70.4225 47.0575 71.9375 47.5625 C71.9375 41.9525 71.9375 36.3425 71.9375 30.5625 C72.9275 30.2325 73.9175 29.9025 74.9375 29.5625 C75.29375104 22.37583736 75.29375104 22.37583736 73.9375 15.375 C71.95765494 13.22427799 71.95765494 13.22427799 68.5 13.1875 C65.97494946 13.33685604 63.47284068 13.6112192 60.95703125 13.875 C50.84498566 14.87992379 50.84498566 14.87992379 45.9375 12.5625 C45.834375 13.51125 45.73125 14.46 45.625 15.4375 C44.9375 18.5625 44.9375 18.5625 41.9375 20.5625 C41.463125 21.366875 40.98875 22.17125 40.5 23 C38.85470078 25.69829071 37.72521602 27.08665034 34.9375 28.5625 C32.1875 28.25 32.1875 28.25 29.9375 27.5625 C29.9375 26.9025 29.9375 26.2425 29.9375 25.5625 C32.5775 24.9025 35.2175 24.2425 37.9375 23.5625 C37.9375 22.9025 37.9375 22.2425 37.9375 21.5625 C38.5975 21.5625 39.2575 21.5625 39.9375 21.5625 C41.40689453 17.25927317 42.71193263 12.93952633 43.9375 8.5625 C50.8125 9.4375 50.8125 9.4375 51.9375 10.5625 C54.38654669 10.66294341 56.80124897 10.70124416 59.25 10.6875 C60.26610352 10.69330078 60.26610352 10.69330078 61.30273438 10.69921875 C64.6569055 10.69266123 67.73154876 10.60093151 70.9375 9.5625 C71.90421756 10.61737733 72.86048745 11.68183281 73.8125 12.75 C74.34617187 13.34167969 74.87984375 13.93335938 75.4296875 14.54296875 C80.1172664 20.82140991 79.70492898 28.06226628 78.9375 35.5625 C76.76435109 43.35972099 72.77342162 50.13304815 67.9375 56.5625 C67.30199219 57.42488281 66.66648437 58.28726563 66.01171875 59.17578125 C57.61725494 70.02566408 44.98498281 82.88407529 30.9375 85.5625 C20.62593385 86.24993774 14.49926391 82.73969584 6.81274414 76.18652344 C0.94014715 70.93702506 -4.52147761 64.64454479 -8.0625 57.5625 C-8.1113207 56.08413694 -8.09933805 54.60349489 -8.0546875 53.125 C-8.03792969 52.22910156 -8.02117187 51.33320313 -8.00390625 50.41015625 C-7.96035906 48.54275017 -7.90856288 46.67551427 -7.84765625 44.80859375 C-7.71796755 36.52030676 -8.99196302 29.25451656 -13.8125 22.375 C-15.77494778 19.4283639 -16.06054977 18.6756132 -16.125 14.9375 C-14.09577528 8.49172736 -10.51550637 4.41855627 -5.07421875 0.56640625 C-3.0625 -0.4375 -3.0625 -0.4375 0 0 Z " fill="#E66054" transform="translate(264.0625,232.4375)"/>
<path d="M0 0 C0 0.66 0 1.32 0 2 C-2.31 2.66 -4.62 3.32 -7 4 C-7.33 6.64 -7.66 9.28 -8 12 C-3.79373966 10.49776416 -2.26099979 7.71449966 0 4 C0.495 5.485 0.495 5.485 1 7 C0.4740625 7.9590625 0.4740625 7.9590625 -0.0625 8.9375 C-0.371875 9.618125 -0.68125 10.29875 -1 11 C-0.3507041 12.34187818 0.31731862 13.67479497 1 15 C0.43975986 19.0138724 -0.8215015 22.81838545 -2 26.6875 C-3.53749136 31.9094796 -4.45920874 36.67025969 -4.53125 42.109375 C-5 44 -5 44 -6.84375 45.265625 C-9 46 -9 46 -12 46 C-13.32 41.71 -14.64 37.42 -16 33 C-17.32 34.2375 -18.64 35.475 -20 36.75 C-24.11412766 40.42728685 -27.95952101 42.80051826 -33 45 C-35.28974774 39.50825443 -35.33309119 34.47289788 -35.3125 28.625 C-35.32861328 27.7175 -35.34472656 26.81 -35.36132812 25.875 C-35.36651439 18.67645858 -34.37208563 12.96510704 -29.75 7.1875 C-23.41644013 2.14944102 -18.78620123 1.68875085 -10.8671875 2.08984375 C-6.89296668 1.96531095 -3.95967782 0 0 0 Z " fill="#418033" transform="translate(182,228)"/>
<path d="M0 0 C1.4540625 0.7734375 1.4540625 0.7734375 2.9375 1.5625 C9.32241257 4.75495628 14.78309688 5.16056724 21.9375 5.5625 C22.4325 12.4925 22.4325 12.4925 22.9375 19.5625 C19.82526687 15.41285583 19.41746422 13.55412787 18.9375 8.5625 C17.968125 8.624375 16.99875 8.68625 16 8.75 C11.32190054 8.77875881 7.26274418 7.21021207 2.9375 5.5625 C2.628125 6.18125 2.31875 6.8 2 7.4375 C1.3125 8.8125 0.625 10.1875 -0.0625 11.5625 C-0.7225 11.5625 -1.3825 11.5625 -2.0625 11.5625 C-2.0625 12.2225 -2.0625 12.8825 -2.0625 13.5625 C-2.7225 13.5625 -3.3825 13.5625 -4.0625 13.5625 C-3.61467146 16.9598045 -3.15238602 20.35499102 -2.6875 23.75 C-2.56117188 24.70970703 -2.43484375 25.66941406 -2.3046875 26.65820312 C-2.17578125 27.58955078 -2.046875 28.52089844 -1.9140625 29.48046875 C-1.74124756 30.76087036 -1.74124756 30.76087036 -1.56494141 32.06713867 C-1.02711872 34.73822017 -0.14497448 37.0673377 0.9375 39.5625 C3.9075 39.8925 6.8775 40.2225 9.9375 40.5625 C7.2975 39.2425 4.6575 37.9225 1.9375 36.5625 C1.9375 35.2425 1.9375 33.9225 1.9375 32.5625 C6.49369725 32.83863317 9.00107653 34.91413391 12.38671875 37.69921875 C14.40272865 40.1214775 15.08404428 42.55648602 15.9375 45.5625 C13.47876232 45.42191524 11.02064825 45.27527001 8.5625 45.125 C7.86382812 45.08568359 7.16515625 45.04636719 6.4453125 45.00585938 C1.1640625 44.67578125 1.1640625 44.67578125 -1.0625 43.5625 C-1.0625 42.2425 -1.0625 40.9225 -1.0625 39.5625 C-1.7225 39.5625 -2.3825 39.5625 -3.0625 39.5625 C-3.3925 40.2225 -3.7225 40.8825 -4.0625 41.5625 C-4.3925 41.5625 -4.7225 41.5625 -5.0625 41.5625 C-5.3925 46.8425 -5.7225 52.1225 -6.0625 57.5625 C-6.7225 57.5625 -7.3825 57.5625 -8.0625 57.5625 C-8.04678955 56.97871582 -8.0310791 56.39493164 -8.01489258 55.79345703 C-7.95167972 53.09157405 -7.91324077 50.38984741 -7.875 47.6875 C-7.84986328 46.7696875 -7.82472656 45.851875 -7.79882812 44.90625 C-7.71104117 36.59575146 -8.9792499 29.27315977 -13.8125 22.375 C-15.77494778 19.4283639 -16.06054977 18.6756132 -16.125 14.9375 C-14.09577528 8.49172736 -10.51550637 4.41855627 -5.07421875 0.56640625 C-3.0625 -0.4375 -3.0625 -0.4375 0 0 Z " fill="#E7614F" transform="translate(264.0625,232.4375)"/>
<path d="M0 0 C2.475 0.495 2.475 0.495 5 1 C5.33 1.99 5.66 2.98 6 4 C8.01508358 4.73323796 8.01508358 4.73323796 10 5 C10 5.66 10 6.32 10 7 C10.99 7 11.98 7 13 7 C13 7.66 13 8.32 13 9 C23.69386685 12.47956622 33.94271779 14.21376201 45.16235352 14.57080078 C48.95253256 14.72393049 51.72657391 15.05616028 55 17 C57.48599612 17.30615946 57.48599612 17.30615946 60 16 C61.74970346 13.99248999 63.26563897 11.91456553 64.765625 9.71484375 C65.17296875 9.14894531 65.5803125 8.58304687 66 8 C66.33 8 66.66 8 67 8 C68.58409786 18.83180428 68.58409786 18.83180428 66 24 C62.24171538 26.50552308 60.46348506 26.37195709 56 26 C54.95585937 25.50757813 53.91171875 25.01515625 52.8359375 24.5078125 C48.53695684 22.58455432 44.52300222 22.60622488 39.875 22.5625 C28.14279639 22.17596073 17.04284582 20.02244687 8 12 C4.6385936 8.29611068 1.59301072 4.77903217 0 0 Z " fill="#F3B637" transform="translate(182,295)"/>
<path d="M0 0 C0 3 0 3 -1.5625 4.625 C-4.67270734 6.37947593 -7.47344754 6.66090842 -11 7 C-9.68 7.33 -8.36 7.66 -7 8 C-12.96583144 15.66742597 -12.96583144 15.66742597 -18 17 C-17.01 17 -16.02 17 -15 17 C-16.15585285 20.91211733 -17.35534962 23.8745041 -20 27 C-19.67 27 -19.34 27 -19 27 C-18.78807779 32.19209404 -19.4087311 36.126739 -21 41 C-21.66 41 -22.32 41 -23 41 C-24.350578 36.27162371 -24.22297171 31.63536419 -24.25 26.75 C-24.270625 25.83347656 -24.29125 24.91695312 -24.3125 23.97265625 C-24.35392958 16.71212279 -23.41680133 11.02100167 -18.75 5.1875 C-12.71547634 0.38731073 -7.44358585 -0.45572975 0 0 Z " fill="#608F42" transform="translate(171,230)"/>
<path d="M0 0 C3.26094674 0.45120018 4.92367746 1.53552273 7.1875 3.875 C7.69667969 4.38804687 8.20585937 4.90109375 8.73046875 5.4296875 C12.96274887 10.66469245 10.40588292 19.12333876 9.75195312 25.36914062 C9.19180471 30.5822007 8.60208965 35.79163223 8 41 C7.34 40.34 6.68 39.68 6 39 C1.25829281 43.58365028 0.83250147 48.74528499 0 55 C-0.33 55 -0.66 55 -1 55 C-2.0106513 45.65709021 0.99330639 37.68490844 4 29 C5.96006223 23.11981331 5.00051595 17.00309571 4 11 C3.34 11 2.68 11 2 11 C-0.51812147 7.6102211 -1.46892527 5.22032739 -1 1 C-0.67 0.67 -0.34 0.34 0 0 Z " fill="#F8C842" transform="translate(178,217)"/>
<path d="M0 0 C2.04166667 1.02083333 4.08333333 2.04166667 6.125 3.0625 C11.14682091 5.30701589 16.58196931 5.19561625 22 5.5 C22.495 12.43 22.495 12.43 23 19.5 C19.88776687 15.35035583 19.47996422 13.49162787 19 8.5 C18.030625 8.561875 17.06125 8.62375 16.0625 8.6875 C11.38440054 8.71625881 7.32524418 7.14771207 3 5.5 C2.690625 6.11875 2.38125 6.7375 2.0625 7.375 C1.375 8.75 0.6875 10.125 0 11.5 C-0.66 11.5 -1.32 11.5 -2 11.5 C-2 12.16 -2 12.82 -2 13.5 C-2.66 13.5 -3.32 13.5 -4 13.5 C-3.67 15.81 -3.34 18.12 -3 20.5 C-3.66 20.17 -4.32 19.84 -5 19.5 C-5.40729228 17.17843403 -5.74438677 14.8431213 -6 12.5 C-7.92759992 14.17617384 -8.90534623 15.09772148 -9.5 17.625 C-9.665 18.24375 -9.83 18.8625 -10 19.5 C-10.99 19.83 -11.98 20.16 -13 20.5 C-13.95024979 16.80458414 -13.95024979 14.19541586 -13 10.5 C-12.34 10.5 -11.68 10.5 -11 10.5 C-10.979375 9.613125 -10.95875 8.72625 -10.9375 7.8125 C-9.78996816 3.75788751 -8.3743532 2.49246069 -4.89453125 0.28125 C-3 -0.5 -3 -0.5 0 0 Z " fill="#EA5E51" transform="translate(264,232.5)"/>
<path d="M0 0 C0.66 0 1.32 0 2 0 C3.18359375 1.4609375 3.18359375 1.4609375 4.4375 3.375 C6.21688245 6.08590869 7.19194031 7.12796021 10 9 C10 9.99 10 10.98 10 12 C11.32 12 12.64 12 14 12 C16.3820551 14.14965948 18.48584822 16.42652301 20.625 18.8125 C22.07561063 20.32680994 22.07561063 20.32680994 25 20 C25 20.66 25 21.32 25 22 C33.50503133 23.00415021 40.05824546 23.42317006 48 20 C48 19.34 48 18.68 48 18 C51.96 17.505 51.96 17.505 56 17 C56 16.34 56 15.68 56 15 C56.66 15 57.32 15 58 15 C58 14.34 58 13.68 58 13 C58.99 13.33 59.98 13.66 61 14 C53.4956213 21.267851 44.9265075 27.53823283 34.25 28.25 C23.61277543 27.95723235 16.16348068 21.24351957 9 14 C0 3.83522348 0 3.83522348 0 0 Z " fill="#D35054" transform="translate(257,290)"/>
<path d="M0 0 C3.29714793 0.32971479 4.6226839 0.6226839 7 3 C6.44444444 7.55555556 6.44444444 7.55555556 5 9 C3.33382885 9.04063832 1.66611905 9.042721 0 9 C0.33 9.66 0.66 10.32 1 11 C1.99 11.33 2.98 11.66 4 12 C3.52406444 16.28342007 1.05238315 18.15573389 -2 21 C-2.928125 21.928125 -3.85625 22.85625 -4.8125 23.8125 C-5.8953125 24.8953125 -5.8953125 24.8953125 -7 26 C-7.66 25.34 -8.32 24.68 -9 24 C-12.08347826 23.83318891 -12.08347826 23.83318891 -15 24 C-14.34 23.34 -13.68 22.68 -13 22 C-13.33 21.34 -13.66 20.68 -14 20 C-12.02 19.34 -10.04 18.68 -8 18 C-8 17.34 -8 16.68 -8 16 C-9.32 15.34 -10.64 14.68 -12 14 C-11.67 12.35 -11.34 10.7 -11 9 C-12.32 8.67 -13.64 8.34 -15 8 C-13.35 7.67 -11.7 7.34 -10 7 C-9.01 9.31 -8.02 11.62 -7 14 C-7 13.01 -7 12.02 -7 11 C-6.01 11 -5.02 11 -4 11 C-3.87882813 10.37351562 -3.75765625 9.74703125 -3.6328125 9.1015625 C-3.46523437 8.28429687 -3.29765625 7.46703125 -3.125 6.625 C-2.96257812 5.81289063 -2.80015625 5.00078125 -2.6328125 4.1640625 C-2 2 -2 2 0 0 Z " fill="#FBD54E" transform="translate(234,269)"/>
<path d="M0 0 C0.66 0 1.32 0 2 0 C2 1.65 2 3.3 2 5 C2.37125 4.0409375 2.37125 4.0409375 2.75 3.0625 C4 1 4 1 6.125 0.25 C6.74375 0.1675 7.3625 0.085 8 0 C8.38218767 1.65614657 8.71395102 3.32457024 9 5 C8.67 5.33 8.34 5.66 8 6 C9.32 6.66 10.64 7.32 12 8 C11.25 9.9375 11.25 9.9375 10 12 C7.875 12.75 7.875 12.75 6 13 C6.33 13.66 6.66 14.32 7 15 C-2.6019529 12.63239518 -2.6019529 12.63239518 -6 11 C-7.5 8.4375 -7.5 8.4375 -8 6 C-8.33 5.34 -8.66 4.68 -9 4 C-7.88625 3.71125 -6.7725 3.4225 -5.625 3.125 C-1.99708908 2.30758671 -1.99708908 2.30758671 0 0 Z " fill="#FBD653" transform="translate(215,277)"/>
<path d="M0 0 C1.5625 1.6875 1.5625 1.6875 3 4 C2.47958507 8.04925588 1.17023591 11.91027951 0 15.8125 C-1.481331 20.91665138 -2.57669993 25.70874908 -3 31 C-4.32 31.33 -5.64 31.66 -7 32 C-7 28.7 -7 25.4 -7 22 C-7.66 21.67 -8.32 21.34 -9 21 C-8.34 20.34 -7.68 19.68 -7 19 C-6.59952556 16.67724823 -6.2602896 14.34260643 -6 12 C-6.66 11.67 -7.32 11.34 -8 11 C-7.360625 10.79375 -6.72125 10.5875 -6.0625 10.375 C-5.381875 9.92125 -4.70125 9.4675 -4 9 C-3.61866701 7.0085944 -3.28674418 5.00720923 -3 3 C-1.4375 1.125 -1.4375 1.125 0 0 Z " fill="#386E29" transform="translate(180,239)"/>
<path d="M0 0 C1.65 0 3.3 0 5 0 C5 0.66 5 1.32 5 2 C4.01 2.495 4.01 2.495 3 3 C3.78375 3.4125 4.5675 3.825 5.375 4.25 C8.1159688 6.07731254 9.08250309 6.88051051 10 10 C9.9375 12.5 9.9375 12.5 9 15 C6.4375 17.3125 6.4375 17.3125 4 19 C3.67 18.34 3.34 17.68 3 17 C0.97536745 16.34786708 0.97536745 16.34786708 -1 16 C-1 15.34 -1 14.68 -1 14 C0.98 13.34 2.96 12.68 5 12 C4.67 10.35 4.34 8.7 4 7 C1.525 6.505 1.525 6.505 -1 6 C-1.474375 7.093125 -1.94875 8.18625 -2.4375 9.3125 C-2.83775391 10.23482422 -2.83775391 10.23482422 -3.24609375 11.17578125 C-3.89961942 12.75711021 -4.45891802 14.37675406 -5 16 C-5.66 16.33 -6.32 16.66 -7 17 C-7.33 17.99 -7.66 18.98 -8 20 C-10 18 -10 18 -10.4375 15.5 C-10.7765556 12.65063471 -10.7765556 12.65063471 -14 11 C-9.56923077 7.92307692 -9.56923077 7.92307692 -6.6875 8.3125 C-6.130625 8.539375 -5.57375 8.76625 -5 9 C-4.896875 8.360625 -4.79375 7.72125 -4.6875 7.0625 C-4.460625 6.381875 -4.23375 5.70125 -4 5 C-3.01 4.67 -2.02 4.34 -1 4 C-0.26676204 1.98491642 -0.26676204 1.98491642 0 0 Z " fill="#F7D455" transform="translate(235,264)"/>
<path d="M0 0 C1.0326802 2.78823655 1.04509293 3.8677274 0.0625 6.75 C-0.288125 7.4925 -0.63875 8.235 -1 9 C-0.67 9.33 -0.34 9.66 0 10 C0.14475933 13.8361222 0.17661508 17.32307787 -1 21 C0.32 20.67 1.64 20.34 3 20 C3 20.66 3 21.32 3 22 C0.35261084 23.4606285 -0.89448334 24 -4 24 C-4.27714844 23.08476562 -4.55429688 22.16953125 -4.83984375 21.2265625 C-5.38318359 19.44378906 -5.38318359 19.44378906 -5.9375 17.625 C-6.29714844 16.44164062 -6.65679687 15.25828125 -7.02734375 14.0390625 C-7.87576274 11.12073182 -7.87576274 11.12073182 -9 9 C-8.39239518 6.6505947 -7.72870472 4.31470912 -7 2 C-5.68 2 -4.36 2 -3 2 C-2.01 1.34 -1.02 0.68 0 0 Z " fill="#5D923F" transform="translate(174,250)"/>
<path d="M0 0 C3.3142272 2.99790183 5.22399543 5.93477732 7.1875 9.9375 C7.69667969 10.95714844 8.20585937 11.97679687 8.73046875 13.02734375 C15.22461205 28.23363007 9.29720324 46.31841132 4 61 C3.67 61 3.34 61 3 61 C1.875 54.25 1.875 54.25 3 52 C2.505 50.515 2.505 50.515 2 49 C2.66 49 3.32 49 4 49 C4 47.35 4 45.7 4 44 C5.98 43.505 5.98 43.505 8 43 C6.68 42.67 5.36 42.34 4 42 C5.98 41.505 5.98 41.505 8 41 C8 33.08 8 25.16 8 17 C7.34 16.67 6.68 16.34 6 16 C5.40644386 13.35139573 5.25790731 10.70802678 5 8 C4.34 8 3.68 8 3 8 C3 7.01 3 6.02 3 5 C2.34 5 1.68 5 1 5 C0.67 3.35 0.34 1.7 0 0 Z " fill="#F8C146" transform="translate(246,248)"/>
<path d="M0 0 C6.875 0.875 6.875 0.875 8 2 C10.34987262 2.23527773 12.70556039 2.41386417 15.0625 2.5625 C16.35285156 2.64628906 17.64320313 2.73007813 18.97265625 2.81640625 C20.47119141 2.90728516 20.47119141 2.90728516 22 3 C18.41992575 6.58007425 12.87055176 5.96829068 8 6 C4.25 5.0625 4.25 5.0625 2 4 C1.8453125 5.423125 1.8453125 5.423125 1.6875 6.875 C1 10 1 10 -2 12 C-2.474375 12.804375 -2.94875 13.60875 -3.4375 14.4375 C-5.08279922 17.13579071 -6.21228398 18.52415034 -9 20 C-11.75 19.6875 -11.75 19.6875 -14 19 C-14 18.34 -14 17.68 -14 17 C-11.36 16.34 -8.72 15.68 -6 15 C-6 14.34 -6 13.68 -6 13 C-5.34 13 -4.68 13 -4 13 C-2.53060547 8.69677317 -1.22556737 4.37702633 0 0 Z " fill="#DA514C" transform="translate(308,241)"/>
<path d="M0 0 C3.4375 0.8125 3.4375 0.8125 5.4375 3.8125 C5.3125 7.375 5.3125 7.375 4.4375 10.8125 C2.75 12.3125 2.75 12.3125 0.4375 12.8125 C-2.6875 12.625 -2.6875 12.625 -5.5625 11.8125 C-7.5625 8.8125 -7.5625 8.8125 -7.375 5.25 C-6.23767142 0.43822523 -4.87993559 -0.25683872 0 0 Z M-1.5625 2.8125 C-2.5525 3.3075 -2.5525 3.3075 -3.5625 3.8125 C-3.5625 5.4625 -3.5625 7.1125 -3.5625 8.8125 C-1.9125 8.8125 -0.2625 8.8125 1.4375 8.8125 C1.4375 7.1625 1.4375 5.5125 1.4375 3.8125 C0.4475 3.4825 -0.5425 3.1525 -1.5625 2.8125 Z " fill="#030303" transform="translate(235.5625,338.1875)"/>
<path d="M0 0 C2.97 0 5.94 0 9 0 C9.33 0.99 9.66 1.98 10 3 C8.02 3 6.04 3 4 3 C4 3.66 4 4.32 4 5 C5.65 5 7.3 5 9 5 C9.33 7.31 9.66 9.62 10 12 C6.7 12 3.4 12 0 12 C0 8.04 0 4.08 0 0 Z " fill="#050505" transform="translate(264,338)"/>
<path d="M0 0 C4.2829452 0.5479083 6.85135641 2.02432804 10.3125 4.5625 C11.19550781 5.20316406 12.07851563 5.84382812 12.98828125 6.50390625 C13.65214844 6.99761719 14.31601562 7.49132812 15 8 C9.58475947 12.41241821 5.08037905 13.29649747 -1.8125 13.125 C-2.85180664 13.11146484 -2.85180664 13.11146484 -3.91210938 13.09765625 C-5.60822395 13.07426157 -7.30415871 13.03839641 -9 13 C-9 12.67 -9 12.34 -9 12 C-2.07 11.01 -2.07 11.01 5 10 C5 9.34 5 8.68 5 8 C4.34 7.67 3.68 7.34 3 7 C3 5.68 3 4.36 3 3 C1.5833253 1.2488427 1.5833253 1.2488427 0 0 Z " fill="#59783A" transform="translate(325,231)"/>
<path d="M0 0 C6.625 -0.25 6.625 -0.25 10 2 C10.2578125 3.875 10.2578125 3.875 10.125 6 C9.9143627 9.11735621 9.9143627 9.11735621 11 12 C6.44615385 12.36923077 6.44615385 12.36923077 4.1875 10.5 C3.795625 10.005 3.40375 9.51 3 9 C3 9.99 3 10.98 3 12 C2.01 12 1.02 12 0 12 C0 8.04 0 4.08 0 0 Z M3 3 C3 3.99 3 4.98 3 6 C4.32 6 5.64 6 7 6 C6.67 5.01 6.34 4.02 6 3 C5.01 3 4.02 3 3 3 Z " fill="#060606" transform="translate(280,338)"/>
<path d="M0 0 C6.625 -0.25 6.625 -0.25 10 2 C10.1875 4.875 10.1875 4.875 10 8 C10 9.32 10 10.64 10 12 C8.35 11.67 6.7 11.34 5 11 C5 10.34 5 9.68 5 9 C4.34 9 3.68 9 3 9 C3 9.99 3 10.98 3 12 C2.01 12 1.02 12 0 12 C0 8.04 0 4.08 0 0 Z M3 3 C3 3.99 3 4.98 3 6 C4.32 5.67 5.64 5.34 7 5 C6.67 4.34 6.34 3.68 6 3 C5.01 3 4.02 3 3 3 Z " fill="#080808" transform="translate(212,338)"/>
<path d="M0 0 C0.94875 0.04125 1.8975 0.0825 2.875 0.125 C3.535 1.445 4.195 2.765 4.875 4.125 C2.895 4.125 0.915 4.125 -1.125 4.125 C-1.455 5.445 -1.785 6.765 -2.125 8.125 C-0.805 8.455 0.515 8.785 1.875 9.125 C1.875 8.135 1.875 7.145 1.875 6.125 C2.865 6.125 3.855 6.125 4.875 6.125 C5.0625 8.5 5.0625 8.5 4.875 11.125 C1.875 13.125 1.875 13.125 -1.125 13.0625 C-4.125 12.125 -4.125 12.125 -6.125 9.875 C-7.125 7.125 -7.125 7.125 -6.4375 4.4375 C-4.52969436 1.07612816 -3.97158854 0.15886354 0 0 Z " fill="#050505" transform="translate(200.125,337.875)"/>
<path d="M0 0 C3.6005691 0.41603214 5.03190346 1.78987933 7.25 4.5625 C7.77078125 5.20316406 8.2915625 5.84382812 8.828125 6.50390625 C9.21484375 6.99761719 9.6015625 7.49132812 10 8 C8.68 8 7.36 8 6 8 C5.67 9.98 5.34 11.96 5 14 C5.66 14 6.32 14 7 14 C7.05386629 16.12472576 7.09273071 18.24983652 7.125 20.375 C7.14820313 21.55835938 7.17140625 22.74171875 7.1953125 23.9609375 C7 27 7 27 5 29 C5.01160156 28.28714844 5.02320313 27.57429688 5.03515625 26.83984375 C5.08606026 21.43674634 4.94608271 16.32171525 4 11 C3.34 11 2.68 11 2 11 C-0.51812147 7.6102211 -1.46892527 5.22032739 -1 1 C-0.67 0.67 -0.34 0.34 0 0 Z " fill="#EBC754" transform="translate(178,217)"/>
<path d="M0 0 C1.423125 0.2475 1.423125 0.2475 2.875 0.5 C3.535 1.49 4.195 2.48 4.875 3.5 C1.875 5.5 1.875 5.5 -2.125 5.5 C-2.125 6.49 -2.125 7.48 -2.125 8.5 C-0.145 8.5 1.835 8.5 3.875 8.5 C3.875 9.82 3.875 11.14 3.875 12.5 C-1.44610092 13.83027523 -1.44610092 13.83027523 -4.4375 12.375 C-6.58743134 9.9861874 -7.125 8.72337198 -7.125 5.5 C-5.11958486 1.89025275 -4.13158196 0.66105311 0 0 Z " fill="#050505" transform="translate(253.125,337.5)"/>
<path d="M0 0 C0.98484375 0.01804687 1.9696875 0.03609375 2.984375 0.0546875 C4.10585938 0.08949219 4.10585938 0.08949219 5.25 0.125 C4.92 1.445 4.59 2.765 4.25 4.125 C0.95 3.795 -2.35 3.465 -5.75 3.125 C-5.75 3.785 -5.75 4.445 -5.75 5.125 C-4.96625 5.24875 -4.1825 5.3725 -3.375 5.5 C-0.75 6.125 -0.75 6.125 1.25 8.125 C1.25 9.115 1.25 10.105 1.25 11.125 C-3.49018901 9.29008812 -8.11413251 7.20558541 -12.75 5.125 C-8.85805567 0.84386124 -5.7530703 -0.13697786 0 0 Z " fill="#713D24" transform="translate(315.75,276.875)"/>
<path d="M0 0 C1 3 1 3 -0.3125 5.6875 C-0.869375 6.450625 -1.42625 7.21375 -2 8 C-2.66 8 -3.32 8 -4 8 C-4.2475 9.258125 -4.495 10.51625 -4.75 11.8125 C-5.45497692 14.59789831 -5.84944952 15.83387533 -7.8125 18 C-10.37640566 19.17207116 -12.21122775 19.23239769 -15 19 C-14.4739075 15.21213403 -13.61896089 12.82847776 -11 10 C-10.34 10 -9.68 10 -9 10 C-9 9.34 -9 8.68 -9 8 C-7.88625 7.690625 -7.88625 7.690625 -6.75 7.375 C-3.20768823 5.60384411 -1.97553159 3.36572049 0 0 Z " fill="#5C9240" transform="translate(182,232)"/>
<path d="M0 0 C0.33 0.66 0.66 1.32 1 2 C1.99 1.67 2.98 1.34 4 1 C4 4.63 4 8.26 4 12 C3.34 11.34 2.68 10.68 2 10 C-2.74170719 14.58365028 -3.16749853 19.74528499 -4 26 C-4.33 26 -4.66 26 -5 26 C-6.00931371 16.66945547 -3.01327888 8.6739385 0 0 Z " fill="#E4C648" transform="translate(182,246)"/>
<path d="M0 0 C0 0.66 0 1.32 0 2 C-2.31 2.66 -4.62 3.32 -7 4 C-7.144375 5.27875 -7.28875 6.5575 -7.4375 7.875 C-7.70642746 10.25692894 -7.92226346 11.84452691 -9 14 C-9.66 14 -10.32 14 -11 14 C-11.33 14.99 -11.66 15.98 -12 17 C-12.33 17 -12.66 17 -13 17 C-13 15.02 -13 13.04 -13 11 C-13.66 10.67 -14.32 10.34 -15 10 C-14.63108098 7.37843912 -14.32833246 6.2731196 -12.2578125 4.55078125 C-11.55398437 4.14214844 -10.85015625 3.73351562 -10.125 3.3125 C-9.42632812 2.89613281 -8.72765625 2.47976562 -8.0078125 2.05078125 C-5.20325041 0.58302405 -3.1809901 0 0 0 Z " fill="#468239" transform="translate(182,228)"/>
<path d="M0 0 C4.55619725 0.27613317 7.06357653 2.35163391 10.44921875 5.13671875 C12 7 12 7 14 13 C9.38 12.34 4.76 11.68 0 11 C0 10.34 0 9.68 0 9 C2.64 8.67 5.28 8.34 8 8 C5.36 6.68 2.72 5.36 0 4 C0 2.68 0 1.36 0 0 Z " fill="#713F24" transform="translate(266,265)"/>
<path d="M0 0 C0.67804688 0.0721875 1.35609375 0.144375 2.0546875 0.21875 C8.40680825 0.85220249 14.61714875 1.09250509 21 1 C20.67 4.63 20.34 8.26 20 12 C20.66 12 21.32 12 22 12 C22.71614583 13.72526042 23.43229167 15.45052083 24.1484375 17.17578125 C25.06806692 19.26533932 25.06806692 19.26533932 27 22 C20.2892562 18.76033058 20.2892562 18.76033058 19.31640625 16.203125 C18.95520002 13.68805939 18.90407354 11.29041065 18.9375 8.75 C18.94652344 7.85796875 18.95554687 6.9659375 18.96484375 6.046875 C18.97644531 5.37140625 18.98804688 4.6959375 19 4 C17.82244141 4.05220703 17.82244141 4.05220703 16.62109375 4.10546875 C10.22833246 4.27019021 5.64448429 4.07880961 0 1 C0 0.67 0 0.34 0 0 Z " fill="#68743B" transform="translate(267,234)"/>
<path d="M0 0 C0.76570313 0.30744141 0.76570313 0.30744141 1.546875 0.62109375 C8.04706208 3.02985102 14.08746879 3.60272809 21 4 C21.495 10.93 21.495 10.93 22 18 C18.88776687 13.85035583 18.47996422 11.99162787 18 7 C16.453125 7.061875 16.453125 7.061875 14.875 7.125 C11.13170373 7.00424851 8.46265453 6.35127982 5 5 C5 4.34 5 3.68 5 3 C3.35 3 1.7 3 0 3 C0 2.01 0 1.02 0 0 Z " fill="#B75D48" transform="translate(265,234)"/>
<path d="M0 0 C0.66 0.99 1.32 1.98 2 3 C1.34 3 0.68 3 0 3 C0.4723551 5.20432382 1.00013864 7.00026096 2.0625 9 C3 11 3 11 3 15 C1.68 15.33 0.36 15.66 -1 16 C-1 16.66 -1 17.32 -1 18 C-1.99 18.33 -2.98 18.66 -4 19 C-4.33 18.01 -4.66 17.02 -5 16 C-4.67 15.67 -4.34 15.34 -4 15 C-3.95919217 13.00041636 -3.95745644 10.99954746 -4 9 C-4.66 8.67 -5.32 8.34 -6 8 C-5.38125 7.79375 -4.7625 7.5875 -4.125 7.375 C-1.15346355 5.45224112 -0.86975341 3.33405473 0 0 Z " fill="#3F8231" transform="translate(155,249)"/>
<path d="M0 0 C4 0 4 0 5.75 1.5 C6.1625 1.995 6.575 2.49 7 3 C7.66 2.01 8.32 1.02 9 0 C9.99 0 10.98 0 12 0 C10.66666667 4 9.33333333 8 8 12 C6.68 12 5.36 12 4 12 C2.66666667 8 1.33333333 4 0 0 Z " fill="#090909" transform="translate(295,338)"/>
<path d="M0 0 C1.67542976 0.28604898 3.34385343 0.61781233 5 1 C8 9.6 8 9.6 8 13 C9.65 12.67 11.3 12.34 13 12 C10.97117094 14.94180214 8.94180214 16.97117094 6 19 C5.67 18.34 5.34 17.68 5 17 C3.02 17 1.04 17 -1 17 C-0.34 16.34 0.32 15.68 1 15 C0.67 14.34 0.34 13.68 0 13 C1.98 12.34 3.96 11.68 6 11 C6 10.34 6 9.68 6 9 C4.68 8.34 3.36 7.68 2 7 C2.33 5.35 2.66 3.7 3 2 C1.68 1.67 0.36 1.34 -1 1 C-0.67 0.67 -0.34 0.34 0 0 Z " fill="#F2C440" transform="translate(220,276)"/>
<path d="M0 0 C3.29714793 0.32971479 4.6226839 0.6226839 7 3 C6.44444444 7.55555556 6.44444444 7.55555556 5 9 C3.00041636 9.04080783 0.99954746 9.04254356 -1 9 C-1.625 5.625 -1.625 5.625 -2 2 C-1.34 1.34 -0.68 0.68 0 0 Z " fill="#685015" transform="translate(234,269)"/>
<path d="M0 0 C4.55555556 0.55555556 4.55555556 0.55555556 6 2 C6.125 5 6.125 5 6 8 C5 9 5 9 2 9.125 C-1 9 -1 9 -2 8 C-2.1875 5.0625 -2.1875 5.0625 -2 2 C-1.34 1.34 -0.68 0.68 0 0 Z " fill="#674C12" transform="translate(202,281)"/>
<path d="M0 0 C3.3142272 2.99790183 5.22399543 5.93477732 7.1875 9.9375 C7.69667969 10.95714844 8.20585937 11.97679687 8.73046875 13.02734375 C10.94531658 18.21349513 11.11499689 22.69533311 11.0625 28.3125 C11.05347656 29.56675781 11.04445313 30.82101562 11.03515625 32.11328125 C11.02355469 33.06589844 11.01195312 34.01851563 11 35 C10.67 35 10.34 35 10 35 C9.87882813 33.71222656 9.75765625 32.42445313 9.6328125 31.09765625 C9.46403135 29.41922152 9.29473387 27.74083865 9.125 26.0625 C9.04636719 25.21236328 8.96773437 24.36222656 8.88671875 23.48632812 C8.80292969 22.67744141 8.71914062 21.86855469 8.6328125 21.03515625 C8.55949707 20.2862915 8.48618164 19.53742676 8.41064453 18.76586914 C8.27513184 18.18313232 8.13961914 17.60039551 8 17 C7.34 16.67 6.68 16.34 6 16 C5.40644386 13.35139573 5.25790731 10.70802678 5 8 C4.34 8 3.68 8 3 8 C3 7.01 3 6.02 3 5 C2.34 5 1.68 5 1 5 C0.67 3.35 0.34 1.7 0 0 Z " fill="#FCB453" transform="translate(246,248)"/>
<path d="M0 0 C5.94 0 11.88 0 18 0 C18.33 1.32 18.66 2.64 19 4 C19.66 4 20.32 4 21 4 C21 4.66 21 5.32 21 6 C19.35 6 17.7 6 16 6 C16.33 4.68 16.66 3.36 17 2 C15.27054347 2.14235457 13.54144346 2.28904382 11.8125 2.4375 C10.84957031 2.51871094 9.88664062 2.59992188 8.89453125 2.68359375 C6.21350398 2.97666151 3.6337014 3.42703754 1 4 C0.67 2.68 0.34 1.36 0 0 Z " fill="#E67059" transform="translate(304,275)"/>
<path d="M0 0 C0.66 0 1.32 0 2 0 C-0.80938379 6.63645253 -7.66829076 10.15073084 -14 13 C-13.67 11.02 -13.34 9.04 -13 7 C-11.68 7 -10.36 7 -9 7 C-9 6.34 -9 5.68 -9 5 C-7.88625 4.731875 -6.7725 4.46375 -5.625 4.1875 C-1.78159049 3.34190981 -1.78159049 3.34190981 0 0 Z " fill="#507E42" transform="translate(163,260)"/>
<path d="M0 0 C1.65 0 3.3 0 5 0 C4.01 0.33 3.02 0.66 2 1 C1.8453125 2.546875 1.8453125 2.546875 1.6875 4.125 C1.00872203 7.95083945 -0.11158795 10.63370025 -2 14 C-2.66 14 -3.32 14 -4 14 C-4 14.66 -4 15.32 -4 16 C-7.22791555 18.1519437 -8.28400809 18.20086443 -12 18 C-12 17.34 -12 16.68 -12 16 C-10.125 14.9375 -10.125 14.9375 -8 14 C-7.34 14.33 -6.68 14.66 -6 15 C-6 14.01 -6 13.02 -6 12 C-5.360625 11.773125 -4.72125 11.54625 -4.0625 11.3125 C-1.72806339 10.14749104 -1.72806339 10.14749104 -1.25 7.375 C-1.1675 6.59125 -1.085 5.8075 -1 5 C-0.34 5 0.32 5 1 5 C0.67 3.35 0.34 1.7 0 0 Z " fill="#5D773B" transform="translate(306,240)"/>
<path d="M0 0 C0.99 0.33 1.98 0.66 3 1 C-1.69393259 5.34036364 -6.16298804 9.30599448 -12 12 C-14.4375 11.75 -14.4375 11.75 -16 11 C-16 10.34 -16 9.68 -16 9 C-14.02 8.34 -12.04 7.68 -10 7 C-10 6.34 -10 5.68 -10 5 C-7.36 4.67 -4.72 4.34 -2 4 C-2 3.34 -2 2.68 -2 2 C-1.34 2 -0.68 2 0 2 C0 1.34 0 0.68 0 0 Z " fill="#D25355" transform="translate(315,303)"/>
<path d="M0 0 C2.69652403 1.61791442 5.38348441 3.25565627 8 5 C8 5.99 8 6.98 8 8 C7.195625 8.2475 6.39125 8.495 5.5625 8.75 C2.828919 9.72238859 2.828919 9.72238859 2.1875 12.125 C2.125625 12.74375 2.06375 13.3625 2 14 C1.67 14 1.34 14 1 14 C0.67 9.38 0.34 4.76 0 0 Z " fill="#F9D855" transform="translate(188,225)"/>
<path d="M0 0 C0.33 0 0.66 0 1 0 C1.33951619 1.56116819 1.67132544 3.12401338 2 4.6875 C2.185625 5.55761719 2.37125 6.42773438 2.5625 7.32421875 C2.99575896 9.97406149 3.21890003 12.32303506 3 15 C1 17 1 17 -2 19 C-3.65 18.01 -5.3 17.02 -7 16 C-6.01 15.67 -5.02 15.34 -4 15 C-3.34 15.33 -2.68 15.66 -2 16 C-1.34 10.72 -0.68 5.44 0 0 Z " fill="#4C8040" transform="translate(295,210)"/>
<path d="M0 0 C0.33 0.66 0.66 1.32 1 2 C0.67 2.99 0.34 3.98 0 5 C-0.66 5 -1.32 5 -2 5 C-1.67 7.97 -1.34 10.94 -1 14 C-0.34 14 0.32 14 1 14 C1 16.31 1 18.62 1 21 C-5.02163462 13.57331731 -5.02163462 13.57331731 -4.875 9.6875 C-3.88426099 5.51224275 -2.55547107 3.37981657 0 0 Z " fill="#DA6951" transform="translate(253,238)"/>
<path d="M0 0 C0.89721507 2.46046096 1.17742086 3.57791658 0.14453125 6.03515625 C-4.74236492 13.47298356 -4.74236492 13.47298356 -8 15 C-10.75 14.6875 -10.75 14.6875 -13 14 C-13 13.34 -13 12.68 -13 12 C-10.36 11.34 -7.72 10.68 -5 10 C-5 9.34 -5 8.68 -5 8 C-4.34 8 -3.68 8 -3 8 C-2.690625 7.05125 -2.38125 6.1025 -2.0625 5.125 C-1 2 -1 2 0 0 Z " fill="#BB5947" transform="translate(307,246)"/>
<path d="M0 0 C2.35953094 2.35953094 2.49141413 3.77895617 3 7 C4.98 7 6.96 7 9 7 C9.33 5.35 9.66 3.7 10 2 C10.33 2 10.66 2 11 2 C11.125 4.875 11.125 4.875 11 8 C9.01388388 9.98611612 7.55856751 10.91454712 5 12 C4.01 12 3.02 12 2 12 C-0.60018816 8.09971775 -0.15085514 4.52565431 0 0 Z " fill="#DFB944" transform="translate(198,282)"/>
<path d="M0 0 C0.66 0 1.32 0 2 0 C3.18359375 1.4609375 3.18359375 1.4609375 4.4375 3.375 C6.21688245 6.08590869 7.19194031 7.12796021 10 9 C11.05008653 10.97416268 12.04987876 12.97582866 13 15 C13.99 16.485 13.99 16.485 15 18 C11.03839933 16.45334769 9.01831819 13.95407549 6.375 10.6875 C5.59898437 9.74261719 4.82296875 8.79773438 4.0234375 7.82421875 C2.17061327 5.23813397 1.01520381 2.99648868 0 0 Z " fill="#C65357" transform="translate(257,290)"/>
<path d="M0 0 C4.05281712 1.22527029 7.44360764 2.69880494 11 5 C10.67 6.32 10.34 7.64 10 9 C8.68 9.33 7.36 9.66 6 10 C5.34 7.69 4.68 5.38 4 3 C3.01 3 2.02 3 1 3 C0.67 2.01 0.34 1.02 0 0 Z " fill="#FCDA4B" transform="translate(231,238)"/>
<path d="M0 0 C2.125 0.9375 2.125 0.9375 4 2 C3.67 2.99 3.34 3.98 3 5 C-0.40562852 5.77842938 -3.50765756 6.09978121 -7 6 C-2.25 1.125 -2.25 1.125 0 0 Z " fill="#D66757" transform="translate(261,232)"/>
<path d="M0 0 C0.33 0.99 0.66 1.98 1 3 C3.31 2.34 5.62 1.68 8 1 C8.82638376 3.89234315 9 5.88742431 9 9 C7.35 8.67 5.7 8.34 4 8 C4 7.01 4 6.02 4 5 C2.68 4.67 1.36 4.34 0 4 C0 2.68 0 1.36 0 0 Z " fill="#020202" transform="translate(213,341)"/>
<path d="M0 0 C-0.2475 0.556875 -0.495 1.11375 -0.75 1.6875 C-1.28353676 4.24050936 -1.28353676 4.24050936 0.9375 6.75 C1.618125 7.4925 2.29875 8.235 3 9 C-0.87302138 7.85569823 -4.00263439 6.76679902 -7 4 C-7 3.34 -7 2.68 -7 2 C-4.35261084 0.5393715 -3.10551666 0 0 0 Z " fill="#557B41" transform="translate(263,225)"/>
<path d="M0 0 C3 1 3 1 4.16796875 3.28515625 C4.50441406 4.20167969 4.84085938 5.11820312 5.1875 6.0625 C5.53167969 6.98160156 5.87585938 7.90070313 6.23046875 8.84765625 C6.48441406 9.55792969 6.73835937 10.26820313 7 11 C8.65 11 10.3 11 12 11 C12 11.66 12 12.32 12 13 C9.35261084 14.4606285 8.10551666 15 5 15 C4.72285156 14.08476562 4.44570312 13.16953125 4.16015625 12.2265625 C3.61681641 10.44378906 3.61681641 10.44378906 3.0625 8.625 C2.70285156 7.44164062 2.34320313 6.25828125 1.97265625 5.0390625 C1.12423726 2.12073182 1.12423726 2.12073182 0 0 Z " fill="#67894A" transform="translate(165,259)"/>
<path d="M0 0 C0.99 0.33 1.98 0.66 3 1 C1.02 3.97 1.02 3.97 -1 7 C-3.3431213 6.74438677 -5.67843403 6.40729228 -8 6 C-8.33 5.34 -8.66 4.68 -9 4 C-7.88625 3.896875 -6.7725 3.79375 -5.625 3.6875 C-4.42875 3.460625 -3.2325 3.23375 -2 3 C-1.34 2.01 -0.68 1.02 0 0 Z " fill="#FBC440" transform="translate(242,306)"/>
<path d="M0 0 C1.67542976 0.28604898 3.34385343 0.61781233 5 1 C7.60869565 8.47826087 7.60869565 8.47826087 8 12 C6 14 6 14 2.875 14.125 C1.451875 14.063125 1.451875 14.063125 0 14 C0 13.67 0 13.34 0 13 C1.98 12.34 3.96 11.68 6 11 C6 10.34 6 9.68 6 9 C4.68 8.34 3.36 7.68 2 7 C2.33 5.35 2.66 3.7 3 2 C1.68 1.67 0.36 1.34 -1 1 C-0.67 0.67 -0.34 0.34 0 0 Z " fill="#A6821A" transform="translate(220,276)"/>
<path d="M0 0 C0.99 0.33 1.98 0.66 3 1 C3.33 2.32 3.66 3.64 4 5 C-0.62 4.34 -5.24 3.68 -10 3 C-10 2.34 -10 1.68 -10 1 C-9.36191406 1.01160156 -8.72382813 1.02320313 -8.06640625 1.03515625 C-7.24011719 1.04417969 -6.41382813 1.05320312 -5.5625 1.0625 C-4.32693359 1.07990234 -4.32693359 1.07990234 -3.06640625 1.09765625 C-1.00836062 1.23267348 -1.00836062 1.23267348 0 0 Z " fill="#693C19" transform="translate(276,273)"/>
<path d="M0 0 C0.33 1.32 0.66 2.64 1 4 C2.11375 4.268125 3.2275 4.53625 4.375 4.8125 C8 6 8 6 10 9 C8.35333797 8.8864371 6.70763918 8.75882619 5.0625 8.625 C4.14597656 8.55539062 3.22945313 8.48578125 2.28515625 8.4140625 C1.15400391 8.20910156 1.15400391 8.20910156 0 8 C-1.43088528 5.13822943 -0.59991697 3.06624227 0 0 Z " fill="#DF705F" transform="translate(265,265)"/>
<path d="M0 0 C1.5625 1.6875 1.5625 1.6875 3 4 C2.71814575 6.88900605 1.91884332 9.24347003 1 12 C0.34 12 -0.32 12 -1 12 C-0.979375 11.236875 -0.95875 10.47375 -0.9375 9.6875 C-0.87057159 6.89814214 -0.87057159 6.89814214 -2 4 C-1.0625 1.8125 -1.0625 1.8125 0 0 Z " fill="#528232" transform="translate(180,239)"/>
<path d="M0 0 C1.65 0 3.3 0 5 0 C3.68 0.33 2.36 0.66 1 1 C3.02633069 5.32371893 3.02633069 5.32371893 6 9 C5.01 9 4.02 9 3 9 C3 9.99 3 10.98 3 12 C2.01 12 1.02 12 0 12 C0 8.04 0 4.08 0 0 Z " fill="#0C0C0C" transform="translate(280,338)"/>
<path d="M0 0 C0 0.66 0 1.32 0 2 C-1.7015625 2.4021875 -1.7015625 2.4021875 -3.4375 2.8125 C-4.613125 3.204375 -5.78875 3.59625 -7 4 C-7.33 4.99 -7.66 5.98 -8 7 C-8 6.34 -8 5.68 -8 5 C-8.78375 5.515625 -9.5675 6.03125 -10.375 6.5625 C-11.24125 7.036875 -12.1075 7.51125 -13 8 C-13.66 7.67 -14.32 7.34 -15 7 C-13.56542672 6.0165504 -12.12722594 5.03839079 -10.6875 4.0625 C-9.88699219 3.51722656 -9.08648437 2.97195312 -8.26171875 2.41015625 C-5.36842521 0.60622021 -3.42006328 0 0 0 Z " fill="#496734" transform="translate(182,228)"/>
<path d="M0 0 C6.875 0.875 6.875 0.875 8 2 C10.34987262 2.23527773 12.70556039 2.41386417 15.0625 2.5625 C16.35285156 2.64628906 17.64320313 2.73007813 18.97265625 2.81640625 C20.47119141 2.90728516 20.47119141 2.90728516 22 3 C22 3.33 22 3.66 22 4 C16.39 4 10.78 4 5 4 C5 3.34 5 2.68 5 2 C3.68 2 2.36 2 1 2 C0.67 2.66 0.34 3.32 0 4 C0 2.68 0 1.36 0 0 Z " fill="#B35E48" transform="translate(308,241)"/>
<path d="M0 0 C0.66 0 1.32 0 2 0 C2.33 0.66 2.66 1.32 3 2 C5.32156597 2.40729228 7.6568787 2.74438677 10 3 C10 3.33 10 3.66 10 4 C8.02 4 6.04 4 4 4 C4 4.66 4 5.32 4 6 C6.97 6 9.94 6 13 6 C13 6.33 13 6.66 13 7 C11.37509046 7.02698189 9.75005367 7.04638757 8.125 7.0625 C6.76761719 7.07990234 6.76761719 7.07990234 5.3828125 7.09765625 C3 7 3 7 1 6 C0.375 2.9375 0.375 2.9375 0 0 Z " fill="#C15843" transform="translate(262,270)"/>
<path d="M0 0 C0.66 0 1.32 0 2 0 C3.125 1.5 3.125 1.5 4 4 C3.57598348 6.7773082 2.81108065 9.29639783 2 12 C0.4375 10.5 0.4375 10.5 -1 8 C-0.96823234 5.22562457 -0.50364148 2.74713533 0 0 Z " fill="#4D8231" transform="translate(176,250)"/>
<path d="M0 0 C9.41002278 -0.3690205 9.41002278 -0.3690205 14 2 C13.34 3.32 12.68 4.64 12 6 C11.67 5.34 11.34 4.68 11 4 C8.97536745 3.34786708 8.97536745 3.34786708 7 3 C7 2.34 7 1.68 7 1 C5.824375 1.5259375 5.824375 1.5259375 4.625 2.0625 C3.325625 2.5265625 3.325625 2.5265625 2 3 C1.34 2.67 0.68 2.34 0 2 C0 1.34 0 0.68 0 0 Z " fill="#4B7E3E" transform="translate(296,206)"/>
<path d="M0 0 C3.875 1.75 3.875 1.75 5 4 C5.99 4 6.98 4 8 4 C8 3.34 8 2.68 8 2 C8.99 2 9.98 2 11 2 C11.33 1.34 11.66 0.68 12 0 C11.6875 1.875 11.6875 1.875 11 4 C8 6 8 6 4.9375 5.75 C2 5 2 5 0 3 C0 2.01 0 1.02 0 0 Z " fill="#E96F5A" transform="translate(286,280)"/>
<path d="M0 0 C1.98 0 3.96 0 6 0 C6 0.99 6 1.98 6 3 C4 5 4 5 1.375 5.125 C0.59125 5.08375 -0.1925 5.0425 -1 5 C-0.67 3.35 -0.34 1.7 0 0 Z " fill="#5B903B" transform="translate(163,231)"/>
<path d="M0 0 C1.32 0 2.64 0 4 0 C3.67 1.65 3.34 3.3 3 5 C1.02 5.33 -0.96 5.66 -3 6 C-2 4 -1 2 0 0 Z " fill="#F6765A" transform="translate(301,295)"/>
<path d="M0 0 C2 2 2 2 2.1953125 3.9453125 C2.13020833 5.96354167 2.06510417 7.98177083 2 10 C0.68 10.33 -0.64 10.66 -2 11 C-1.40049704 7.31733897 -0.75241109 3.65456815 0 0 Z " fill="#51812B" transform="translate(175,260)"/>
<path d="M0 0 C0.99 0 1.98 0 3 0 C1.68938409 4.23429756 0.05643741 8.07407404 -2 12 C-3.47118907 8.17490842 -2.45442741 5.71687005 -1 2 C-0.67 1.34 -0.34 0.68 0 0 Z " fill="#DC645C" transform="translate(338,272)"/>
<path d="M0 0 C2.83374881 3.20336822 3.5205537 5.78087253 4 10 C2.66666667 8 1.33333333 6 0 4 C-0.99 4.495 -0.99 4.495 -2 5 C-2 4.34 -2 3.68 -2 3 C-3.98 3.33 -5.96 3.66 -8 4 C-5.53721199 1.53721199 -3.29323018 1.00228745 0 0 Z " fill="#356E27" transform="translate(158,244)"/>
<path d="M0 0 C0 1.65 0 3.3 0 5 C-1.65 5 -3.3 5 -5 5 C-5.33 3.68 -5.66 2.36 -6 1 C-4 0 -4 0 0 0 Z " fill="#504323" transform="translate(207,284)"/>
<path d="M0 0 C0.66 0.99 1.32 1.98 2 3 C1.34 3 0.68 3 0 3 C0.33 4.98 0.66 6.96 1 9 C0.01 9 -0.98 9 -2 9 C-2.33 9.66 -2.66 10.32 -3 11 C-3.33 10.34 -3.66 9.68 -4 9 C-4.66 8.67 -5.32 8.34 -6 8 C-5.38125 7.79375 -4.7625 7.5875 -4.125 7.375 C-1.15346355 5.45224112 -0.86975341 3.33405473 0 0 Z " fill="#366D2B" transform="translate(155,249)"/>
<path d="M0 0 C3.63 0 7.26 0 11 0 C10.67 1.98 10.34 3.96 10 6 C9.67 4.68 9.34 3.36 9 2 C7.329375 2.061875 7.329375 2.061875 5.625 2.125 C2 2 2 2 0 0 Z " fill="#D9514C" transform="translate(274,239)"/>
<path d="M0 0 C3.3 0.33 6.6 0.66 10 1 C9.01 1.66 8.02 2.32 7 3 C7.33 4.32 7.66 5.64 8 7 C7.236875 6.360625 6.47375 5.72125 5.6875 5.0625 C3.11753287 2.85767219 3.11753287 2.85767219 0 2 C0 1.34 0 0.68 0 0 Z " fill="#CC6C53" transform="translate(310,280)"/>
<path d="M0 0 C2.1385485 2.1385485 2.42655063 3.13275314 3 6 C2.01 6.33 1.02 6.66 0 7 C-3.1875 5.125 -3.1875 5.125 -6 3 C-6 2.67 -6 2.34 -6 2 C-4.02 1.34 -2.04 0.68 0 0 Z " fill="#E87059" transform="translate(275,263)"/>
<path d="M0 0 C-0.33 1.65 -0.66 3.3 -1 5 C-3.97 4.505 -3.97 4.505 -7 4 C-7 3.01 -7 2.02 -7 1 C-4 0 -4 0 0 0 Z " fill="#524320" transform="translate(240,271)"/>
<path d="M0 0 C0.66 0.33 1.32 0.66 2 1 C-0.97 4.96 -0.97 4.96 -4 9 C-4.66 8.01 -5.32 7.02 -6 6 C-5.67 5.01 -5.34 4.02 -5 3 C-3.68 3 -2.36 3 -1 3 C-0.67 2.01 -0.34 1.02 0 0 Z " fill="#DA675D" transform="translate(333,284)"/>
<path d="M0 0 C4.42857143 8.85714286 4.42857143 8.85714286 3 15 C1.08697693 11.73386305 0.64325339 9.00554752 0.375 5.25 C0.30023438 4.26515625 0.22546875 3.2803125 0.1484375 2.265625 C0.09945312 1.51796875 0.05046875 0.7703125 0 0 Z " fill="#EFC559" transform="translate(176,272)"/>
<path d="M0 0 C1.79133978 -0.05391993 3.58313899 -0.09275571 5.375 -0.125 C6.37273437 -0.14820313 7.37046875 -0.17140625 8.3984375 -0.1953125 C11 0 11 0 13 2 C4.57142857 3.28571429 4.57142857 3.28571429 0 2 C0 1.34 0 0.68 0 0 Z " fill="#E3705D" transform="translate(267,277)"/>
<path d="M0 0 C3.79588866 0.54226981 5.47211993 2.20127563 8 5 C7.67 5.66 7.34 6.32 7 7 C6.62875 6.525625 6.2575 6.05125 5.875 5.5625 C3.37353038 3.47794198 1.18406582 3.35378509 -2 3 C-1.34 2.01 -0.68 1.02 0 0 Z " fill="#D0695A" transform="translate(332,242)"/>
<path d="M0 0 C0.99 0.33 1.98 0.66 3 1 C1.71372289 2.17260611 0.42080217 3.3379283 -0.875 4.5 C-1.59429687 5.1496875 -2.31359375 5.799375 -3.0546875 6.46875 C-5 8 -5 8 -7 8 C-6.34 6.68 -5.68 5.36 -5 4 C-4.01 4 -3.02 4 -2 4 C-2 3.34 -2 2.68 -2 2 C-1.34 2 -0.68 2 0 2 C0 1.34 0 0.68 0 0 Z " fill="#CB605D" transform="translate(315,303)"/>
<path d="M0 0 C2.475 0.495 2.475 0.495 5 1 C5.33 1.99 5.66 2.98 6 4 C5.01 5.485 5.01 5.485 4 7 C0 1.125 0 1.125 0 0 Z " fill="#EDBA40" transform="translate(182,295)"/>
<path d="M0 0 C2.97 0 5.94 0 9 0 C9.33 0.99 9.66 1.98 10 3 C3.375 3.125 3.375 3.125 0 2 C0 1.34 0 0.68 0 0 Z " fill="#0B0B0B" transform="translate(264,338)"/>
<path d="M0 0 C1.15957207 3.47871621 0.77456651 4.34219645 -0.4375 7.6875 C-0.86869141 8.89986328 -0.86869141 8.89986328 -1.30859375 10.13671875 C-1.53675781 10.75160156 -1.76492187 11.36648438 -2 12 C-2.33 12 -2.66 12 -3 12 C-3.33 9.69 -3.66 7.38 -4 5 C-3.01 4.67 -2.02 4.34 -1 4 C-0.26676204 1.98491642 -0.26676204 1.98491642 0 0 Z " fill="#EFBB4B" transform="translate(252,297)"/>
<path d="M0 0 C2.875 -0.125 2.875 -0.125 6 0 C8 2 8 2 8 5 C4.62496331 3.8141763 2.35277269 2.72426311 0 0 Z " fill="#6C3C1E" transform="translate(309,283)"/>
<path d="M0 0 C2.475 0.495 2.475 0.495 5 1 C5.33 1.99 5.66 2.98 6 4 C4.02 4 2.04 4 0 4 C0 2.68 0 1.36 0 0 Z " fill="#7D4221" transform="translate(266,265)"/>
<path d="M0 0 C3.95820859 0.56545837 6.6659053 1.80902348 10 4 C9.67 4.66 9.34 5.32 9 6 C7.68 5.34 6.36 4.68 5 4 C4.67 4.66 4.34 5.32 4 6 C3.67 5.01 3.34 4.02 3 3 C1.50014391 1.33289654 1.50014391 1.33289654 0 0 Z " fill="#4F7F44" transform="translate(325,231)"/>
<path d="M0 0 C3.77545388 1.09068668 6.47043472 1.9083091 9 5 C7.35 5 5.7 5 4 5 C4 4.34 4 3.68 4 3 C3.01 3 2.02 3 1 3 C0.67 2.01 0.34 1.02 0 0 Z " fill="#F7D564" transform="translate(231,238)"/>
<path d="M0 0 C1.32 0.66 2.64 1.32 4 2 C4 1.34 4 0.68 4 0 C4.66 0 5.32 0 6 0 C6 0.66 6 1.32 6 2 C6.99 2.33 7.98 2.66 9 3 C4.94568308 4.15837626 2.78187881 3.83691257 -1 2 C-0.67 1.34 -0.34 0.68 0 0 Z " fill="#7D452B" transform="translate(304,280)"/>
<path d="M0 0 C1.98 0.495 1.98 0.495 4 1 C3.34 2.98 2.68 4.96 2 7 C1.01 7 0.02 7 -1 7 C-0.67 4.69 -0.34 2.38 0 0 Z " fill="#E3BC44" transform="translate(217,275)"/>
<path d="M0 0 C0.33 0.99 0.66 1.98 1 3 C-0.4375 5.6875 -0.4375 5.6875 -2 8 C-2.99 7.67 -3.98 7.34 -5 7 C-3.35 4.69 -1.7 2.38 0 0 Z " fill="#5F693F" transform="translate(182,232)"/>
</svg>
